solid OpenSCAD_Model
  facet normal 1 -0 0
    outer loop
      vertex -12 -12 -4
      vertex -12 12 -6
      vertex -12 12 -4
    endloop
  endfacet
  facet normal 1 0 0
    outer loop
      vertex -12 12 -6
      vertex -12 -12 -4
      vertex -12 -12 -6
    endloop
  endfacet
  facet normal -1 0 0
    outer loop
      vertex 12 -12 -6
      vertex 12 12 -4
      vertex 12 12 -6
    endloop
  endfacet
  facet normal -1 -0 0
    outer loop
      vertex 12 12 -4
      vertex 12 -12 -6
      vertex 12 -12 -4
    endloop
  endfacet
  facet normal 0 -1 0
    outer loop
      vertex -12 12 -6
      vertex 12 12 -4
      vertex -12 12 -4
    endloop
  endfacet
  facet normal 0 -1 -0
    outer loop
      vertex 12 12 -4
      vertex -12 12 -6
      vertex 12 12 -6
    endloop
  endfacet
  facet normal 0 0 1
    outer loop
      vertex 12 12 -6
      vertex 7.05 7.05 -6
      vertex 12 -12 -6
    endloop
  endfacet
  facet normal 0 0 1
    outer loop
      vertex 12 12 -6
      vertex -7.05 7.05 -6
      vertex 7.05 7.05 -6
    endloop
  endfacet
  facet normal 0 0 1
    outer loop
      vertex -7.05 7.05 -6
      vertex -12 12 -6
      vertex -7.05 -7.05 -6
    endloop
  endfacet
  facet normal -0 0 1
    outer loop
      vertex -12 12 -6
      vertex -7.05 7.05 -6
      vertex 12 12 -6
    endloop
  endfacet
  facet normal -0 0 1
    outer loop
      vertex 7.05 -7.05 -6
      vertex 12 -12 -6
      vertex 7.05 7.05 -6
    endloop
  endfacet
  facet normal -0 0 1
    outer loop
      vertex -7.05 -7.05 -6
      vertex 12 -12 -6
      vertex 7.05 -7.05 -6
    endloop
  endfacet
  facet normal 0 0 1
    outer loop
      vertex -7.05 -7.05 -6
      vertex -12 -12 -6
      vertex 12 -12 -6
    endloop
  endfacet
  facet normal 0 0 1
    outer loop
      vertex -12 -12 -6
      vertex -7.05 -7.05 -6
      vertex -12 12 -6
    endloop
  endfacet
  facet normal 0 1 -0
    outer loop
      vertex 12 -12 -6
      vertex -12 -12 -4
      vertex 12 -12 -4
    endloop
  endfacet
  facet normal 0 1 0
    outer loop
      vertex -12 -12 -4
      vertex 12 -12 -6
      vertex -12 -12 -6
    endloop
  endfacet
  facet normal 1 -0 0
    outer loop
      vertex -7.05 -7.05 -6
      vertex -7.05 7.05 -7
      vertex -7.05 7.05 -6
    endloop
  endfacet
  facet normal 1 0 0
    outer loop
      vertex -7.05 7.05 -7
      vertex -7.05 -7.05 -6
      vertex -7.05 -7.05 -7
    endloop
  endfacet
  facet normal -1 0 0
    outer loop
      vertex 7.05 -7.05 -7
      vertex 7.05 7.05 -6
      vertex 7.05 7.05 -7
    endloop
  endfacet
  facet normal -1 -0 0
    outer loop
      vertex 7.05 7.05 -6
      vertex 7.05 -7.05 -7
      vertex 7.05 -7.05 -6
    endloop
  endfacet
  facet normal 0 -1 0
    outer loop
      vertex -7.05 7.05 -7
      vertex 7.05 7.05 -6
      vertex -7.05 7.05 -6
    endloop
  endfacet
  facet normal 0 -1 -0
    outer loop
      vertex 7.05 7.05 -6
      vertex -7.05 7.05 -7
      vertex 7.05 7.05 -7
    endloop
  endfacet
  facet normal 0 1 -0
    outer loop
      vertex 7.05 -7.05 -7
      vertex -7.05 -7.05 -6
      vertex 7.05 -7.05 -6
    endloop
  endfacet
  facet normal 0 1 0
    outer loop
      vertex -7.05 -7.05 -6
      vertex 7.05 -7.05 -7
      vertex -7.05 -7.05 -7
    endloop
  endfacet
  facet normal 0 0 -1
    outer loop
      vertex -7.05 -12.9 -7
      vertex 7.05 -7.05 -7
      vertex 7.05 -12.9 -7
    endloop
  endfacet
  facet normal -0 0 -1
    outer loop
      vertex 7.05 -7.05 -7
      vertex -7.05 -12.9 -7
      vertex -7.05 -7.05 -7
    endloop
  endfacet
  facet normal 0 0 -1
    outer loop
      vertex -12.9 -7.05 -7
      vertex -7.05 7.05 -7
      vertex -7.05 -7.05 -7
    endloop
  endfacet
  facet normal -0 0 -1
    outer loop
      vertex -7.05 7.05 -7
      vertex -12.9 -7.05 -7
      vertex -12.9 7.05 -7
    endloop
  endfacet
  facet normal 0 0 -1
    outer loop
      vertex 7.05 -7.05 -7
      vertex 12.9 7.05 -7
      vertex 12.9 -7.05 -7
    endloop
  endfacet
  facet normal -0 0 -1
    outer loop
      vertex 12.9 7.05 -7
      vertex 7.05 -7.05 -7
      vertex 7.05 7.05 -7
    endloop
  endfacet
  facet normal 0 0 -1
    outer loop
      vertex -7.05 7.05 -7
      vertex 7.05 12.9 -7
      vertex 7.05 7.05 -7
    endloop
  endfacet
  facet normal -0 0 -1
    outer loop
      vertex 7.05 12.9 -7
      vertex -7.05 7.05 -7
      vertex -7.05 12.9 -7
    endloop
  endfacet
  facet normal -0 0 1
    outer loop
      vertex -12.9 7.05 -11
      vertex -7.05 -7.05 -11
      vertex -7.05 7.05 -11
    endloop
  endfacet
  facet normal 0 0 1
    outer loop
      vertex -7.05 -7.05 -11
      vertex -12.9 7.05 -11
      vertex -12.9 -7.05 -11
    endloop
  endfacet
  facet normal 0 0 1
    outer loop
      vertex -7.05 7.05 -11
      vertex 7.05 7.05 -11
      vertex 7.05 12.9 -11
    endloop
  endfacet
  facet normal 0 0 1
    outer loop
      vertex 7.05 7.05 -11
      vertex -7.05 7.05 -11
      vertex 7.05 -7.05 -11
    endloop
  endfacet
  facet normal 0 0 1
    outer loop
      vertex -7.05 7.05 -11
      vertex 7.05 12.9 -11
      vertex -7.05 12.9 -11
    endloop
  endfacet
  facet normal 0 0 1
    outer loop
      vertex -7.05 -7.05 -11
      vertex 7.05 -7.05 -11
      vertex -7.05 7.05 -11
    endloop
  endfacet
  facet normal 0 0 1
    outer loop
      vertex 7.05 -7.05 -11
      vertex -7.05 -7.05 -11
      vertex 7.05 -12.9 -11
    endloop
  endfacet
  facet normal 0 0 1
    outer loop
      vertex 7.05 -12.9 -11
      vertex -7.05 -7.05 -11
      vertex -7.05 -12.9 -11
    endloop
  endfacet
  facet normal -0 0 1
    outer loop
      vertex 7.05 7.05 -11
      vertex 12.9 -7.05 -11
      vertex 12.9 7.05 -11
    endloop
  endfacet
  facet normal 0 0 1
    outer loop
      vertex 12.9 -7.05 -11
      vertex 7.05 7.05 -11
      vertex 7.05 -7.05 -11
    endloop
  endfacet
  facet normal 0 1 -0
    outer loop
      vertex -7.05 -7.05 -11
      vertex -12.9 -7.05 -7
      vertex -7.05 -7.05 -7
    endloop
  endfacet
  facet normal 0 1 0
    outer loop
      vertex -12.9 -7.05 -7
      vertex -7.05 -7.05 -11
      vertex -12.9 -7.05 -11
    endloop
  endfacet
  facet normal 0 1 -0
    outer loop
      vertex 12.9 -7.05 -11
      vertex 7.05 -7.05 -7
      vertex 12.9 -7.05 -7
    endloop
  endfacet
  facet normal 0 1 0
    outer loop
      vertex 7.05 -7.05 -7
      vertex 12.9 -7.05 -11
      vertex 7.05 -7.05 -11
    endloop
  endfacet
  facet normal 0 -1 0
    outer loop
      vertex -12.9 7.05 -11
      vertex -7.05 7.05 -7
      vertex -12.9 7.05 -7
    endloop
  endfacet
  facet normal 0 -1 -0
    outer loop
      vertex -7.05 7.05 -7
      vertex -12.9 7.05 -11
      vertex -7.05 7.05 -11
    endloop
  endfacet
  facet normal 0 -1 0
    outer loop
      vertex 7.05 7.05 -11
      vertex 12.9 7.05 -7
      vertex 7.05 7.05 -7
    endloop
  endfacet
  facet normal 0 -1 -0
    outer loop
      vertex 12.9 7.05 -7
      vertex 7.05 7.05 -11
      vertex 12.9 7.05 -11
    endloop
  endfacet
  facet normal 1 -0 0
    outer loop
      vertex -7.05 -12.9 -7
      vertex -7.05 -7.05 -11
      vertex -7.05 -7.05 -7
    endloop
  endfacet
  facet normal 1 0 0
    outer loop
      vertex -7.05 -7.05 -11
      vertex -7.05 -12.9 -7
      vertex -7.05 -12.9 -11
    endloop
  endfacet
  facet normal 1 -0 0
    outer loop
      vertex -7.05 7.05 -7
      vertex -7.05 12.9 -11
      vertex -7.05 12.9 -7
    endloop
  endfacet
  facet normal 1 0 0
    outer loop
      vertex -7.05 12.9 -11
      vertex -7.05 7.05 -7
      vertex -7.05 7.05 -11
    endloop
  endfacet
  facet normal -1 0 0
    outer loop
      vertex 7.05 -12.9 -11
      vertex 7.05 -7.05 -7
      vertex 7.05 -7.05 -11
    endloop
  endfacet
  facet normal -1 -0 0
    outer loop
      vertex 7.05 -7.05 -7
      vertex 7.05 -12.9 -11
      vertex 7.05 -12.9 -7
    endloop
  endfacet
  facet normal -1 0 0
    outer loop
      vertex 7.05 7.05 -11
      vertex 7.05 12.9 -7
      vertex 7.05 12.9 -11
    endloop
  endfacet
  facet normal -1 -0 0
    outer loop
      vertex 7.05 12.9 -7
      vertex 7.05 7.05 -11
      vertex 7.05 7.05 -7
    endloop
  endfacet
  facet normal -1 0 0
    outer loop
      vertex -12.9 7.05 -7
      vertex -12.9 12.9 -12
      vertex -12.9 7.05 -11
    endloop
  endfacet
  facet normal -1 0 0
    outer loop
      vertex -12.9 12.9 -12
      vertex -12.9 -7.05 -11
      vertex -12.9 7.05 -11
    endloop
  endfacet
  facet normal -1 -0 0
    outer loop
      vertex -12.9 -7.05 -11
      vertex -12.9 -12.9 -12
      vertex -12.9 -7.05 -7
    endloop
  endfacet
  facet normal -1 0 0
    outer loop
      vertex -12.9 -12.9 -12
      vertex -12.9 -7.05 -11
      vertex -12.9 12.9 -12
    endloop
  endfacet
  facet normal -1 0 0
    outer loop
      vertex -12.9 12.9 -12
      vertex -12.9 7.05 -7
      vertex -12.9 12.9 -4
    endloop
  endfacet
  facet normal -1 0 0
    outer loop
      vertex -12.9 -7.05 -7
      vertex -12.9 12.9 -4
      vertex -12.9 7.05 -7
    endloop
  endfacet
  facet normal -1 0 0
    outer loop
      vertex -12.9 -7.05 -7
      vertex -12.9 -12.9 -4
      vertex -12.9 12.9 -4
    endloop
  endfacet
  facet normal -1 0 0
    outer loop
      vertex -12.9 -12.9 -4
      vertex -12.9 -7.05 -7
      vertex -12.9 -12.9 -12
    endloop
  endfacet
  facet normal 0 0 1
    outer loop
      vertex 12.9 12.9 -4
      vertex 12 12 -4
      vertex 12.9 -12.9 -4
    endloop
  endfacet
  facet normal 0 0 1
    outer loop
      vertex 12.9 12.9 -4
      vertex -12 12 -4
      vertex 12 12 -4
    endloop
  endfacet
  facet normal 0 0 1
    outer loop
      vertex -12 12 -4
      vertex -12.9 12.9 -4
      vertex -12 -12 -4
    endloop
  endfacet
  facet normal -0 0 1
    outer loop
      vertex -12.9 12.9 -4
      vertex -12 12 -4
      vertex 12.9 12.9 -4
    endloop
  endfacet
  facet normal -0 0 1
    outer loop
      vertex 12 -12 -4
      vertex 12.9 -12.9 -4
      vertex 12 12 -4
    endloop
  endfacet
  facet normal -0 0 1
    outer loop
      vertex -12 -12 -4
      vertex 12.9 -12.9 -4
      vertex 12 -12 -4
    endloop
  endfacet
  facet normal 0 0 1
    outer loop
      vertex -12 -12 -4
      vertex -12.9 -12.9 -4
      vertex 12.9 -12.9 -4
    endloop
  endfacet
  facet normal 0 0 1
    outer loop
      vertex -12.9 -12.9 -4
      vertex -12 -12 -4
      vertex -12.9 12.9 -4
    endloop
  endfacet
  facet normal 1 0 0
    outer loop
      vertex 12.9 12.9 -4
      vertex 12.9 7.05 -7
      vertex 12.9 12.9 -12
    endloop
  endfacet
  facet normal 1 0 0
    outer loop
      vertex 12.9 12.9 -4
      vertex 12.9 -7.05 -7
      vertex 12.9 7.05 -7
    endloop
  endfacet
  facet normal 1 0 0
    outer loop
      vertex 12.9 -12.9 -12
      vertex 12.9 -7.05 -7
      vertex 12.9 -12.9 -4
    endloop
  endfacet
  facet normal 1 -0 0
    outer loop
      vertex 12.9 -12.9 -4
      vertex 12.9 -7.05 -7
      vertex 12.9 12.9 -4
    endloop
  endfacet
  facet normal 1 -0 0
    outer loop
      vertex 12.9 7.05 -11
      vertex 12.9 12.9 -12
      vertex 12.9 7.05 -7
    endloop
  endfacet
  facet normal 1 -0 0
    outer loop
      vertex 12.9 -7.05 -11
      vertex 12.9 12.9 -12
      vertex 12.9 7.05 -11
    endloop
  endfacet
  facet normal 1 0 0
    outer loop
      vertex 12.9 -7.05 -11
      vertex 12.9 -12.9 -12
      vertex 12.9 12.9 -12
    endloop
  endfacet
  facet normal 1 0 0
    outer loop
      vertex 12.9 -7.05 -7
      vertex 12.9 -12.9 -12
      vertex 12.9 -7.05 -11
    endloop
  endfacet
  facet normal 0 0 -1
    outer loop
      vertex -12.9 -12.9 -12
      vertex 12.9 12.9 -12
      vertex 12.9 -12.9 -12
    endloop
  endfacet
  facet normal -0 0 -1
    outer loop
      vertex 12.9 12.9 -12
      vertex -12.9 -12.9 -12
      vertex -12.9 12.9 -12
    endloop
  endfacet
  facet normal 0 -1 0
    outer loop
      vertex -12.9 -12.9 -4
      vertex -7.05 -12.9 -7
      vertex 12.9 -12.9 -4
    endloop
  endfacet
  facet normal 0 -1 0
    outer loop
      vertex -12.9 -12.9 -12
      vertex -7.05 -12.9 -7
      vertex -12.9 -12.9 -4
    endloop
  endfacet
  facet normal 0 -1 -0
    outer loop
      vertex -7.05 -12.9 -11
      vertex -12.9 -12.9 -12
      vertex 7.05 -12.9 -11
    endloop
  endfacet
  facet normal 0 -1 -0
    outer loop
      vertex -7.05 -12.9 -7
      vertex -12.9 -12.9 -12
      vertex -7.05 -12.9 -11
    endloop
  endfacet
  facet normal 0 -1 0
    outer loop
      vertex 7.05 -12.9 -7
      vertex 12.9 -12.9 -4
      vertex -7.05 -12.9 -7
    endloop
  endfacet
  facet normal 0 -1 0
    outer loop
      vertex 12.9 -12.9 -12
      vertex 7.05 -12.9 -7
      vertex 7.05 -12.9 -11
    endloop
  endfacet
  facet normal 0 -1 0
    outer loop
      vertex 7.05 -12.9 -7
      vertex 12.9 -12.9 -12
      vertex 12.9 -12.9 -4
    endloop
  endfacet
  facet normal 0 -1 0
    outer loop
      vertex 12.9 -12.9 -12
      vertex 7.05 -12.9 -11
      vertex -12.9 -12.9 -12
    endloop
  endfacet
  facet normal 0 1 0
    outer loop
      vertex 12.9 12.9 -4
      vertex 7.05 12.9 -7
      vertex -12.9 12.9 -4
    endloop
  endfacet
  facet normal 0 1 -0
    outer loop
      vertex 12.9 12.9 -12
      vertex 7.05 12.9 -7
      vertex 12.9 12.9 -4
    endloop
  endfacet
  facet normal 0 1 0
    outer loop
      vertex 7.05 12.9 -11
      vertex 12.9 12.9 -12
      vertex -7.05 12.9 -11
    endloop
  endfacet
  facet normal 0 1 0
    outer loop
      vertex 7.05 12.9 -7
      vertex 12.9 12.9 -12
      vertex 7.05 12.9 -11
    endloop
  endfacet
  facet normal 0 1 -0
    outer loop
      vertex -7.05 12.9 -7
      vertex -12.9 12.9 -4
      vertex 7.05 12.9 -7
    endloop
  endfacet
  facet normal 0 1 0
    outer loop
      vertex -12.9 12.9 -12
      vertex -7.05 12.9 -7
      vertex -7.05 12.9 -11
    endloop
  endfacet
  facet normal 0 1 0
    outer loop
      vertex -7.05 12.9 -7
      vertex -12.9 12.9 -12
      vertex -12.9 12.9 -4
    endloop
  endfacet
  facet normal 0 1 0
    outer loop
      vertex -12.9 12.9 -12
      vertex -7.05 12.9 -11
      vertex 12.9 12.9 -12
    endloop
  endfacet
endsolid OpenSCAD_Model
