M48
; DRILL file {KiCad 5.1.6-1.fc32} date Mon Aug  3 22:39:17 2020
; FORMAT={-:-/ absolute / inch / decimal}
; #@! TF.CreationDate,2020-08-03T22:39:17-06:00
; #@! TF.GenerationSoftware,Kicad,Pcbnew,5.1.6-1.fc32
; #@! TF.FileFunction,Plated,1,2,PTH
FMAT,2
INCH
T1C0.0300
T2C0.0600
%
G90
G05
T1
X4.7244Y-5.2937
X4.5244Y-3.7976
X4.7244Y-3.7976
X4.5244Y-3.0496
X4.7244Y-3.0496
X4.375Y-2.9
X4.475Y-2.85
X4.475Y-2.9
X4.575Y-2.85
X4.575Y-2.9
X4.675Y-2.85
X4.675Y-2.9
X4.775Y-2.85
X4.775Y-2.9
X4.875Y-2.85
X4.875Y-2.9
X4.5244Y-5.2937
X4.5244Y-4.5457
X4.7244Y-4.5457
X4.5244Y-6.0417
X4.7244Y-6.0417
T2
X4.4744Y-6.2417
X4.7244Y-6.1417
X4.4744Y-3.9976
X4.7244Y-3.8976
X4.4744Y-3.2496
X4.7244Y-3.1496
X4.4744Y-5.4937
X4.7244Y-5.3937
X4.4744Y-4.7457
X4.7244Y-4.6457
T0
M30
