%TF.GenerationSoftware,KiCad,Pcbnew,5.1.6-1.fc32*%
%TF.CreationDate,2020-08-03T22:39:13-06:00*%
%TF.ProjectId,5_switch_column,355f7377-6974-4636-985f-636f6c756d6e,01*%
%TF.SameCoordinates,Original*%
%TF.FileFunction,Legend,Bot*%
%TF.FilePolarity,Positive*%
%FSLAX46Y46*%
G04 Gerber Fmt 4.6, Leading zero omitted, Abs format (unit mm)*
G04 Created by KiCad (PCBNEW 5.1.6-1.fc32) date 2020-08-03 22:39:13*
%MOMM*%
%LPD*%
G01*
G04 APERTURE LIST*
%ADD10C,0.150000*%
%ADD11C,0.120000*%
%ADD12C,0.152400*%
G04 APERTURE END LIST*
D10*
X122094047Y-165822380D02*
X122094047Y-166536666D01*
X122141666Y-166679523D01*
X122236904Y-166774761D01*
X122379761Y-166822380D01*
X122475000Y-166822380D01*
X121141666Y-166822380D02*
X121617857Y-166822380D01*
X121617857Y-165822380D01*
X120236904Y-166727142D02*
X120284523Y-166774761D01*
X120427380Y-166822380D01*
X120522619Y-166822380D01*
X120665476Y-166774761D01*
X120760714Y-166679523D01*
X120808333Y-166584285D01*
X120855952Y-166393809D01*
X120855952Y-166250952D01*
X120808333Y-166060476D01*
X120760714Y-165965238D01*
X120665476Y-165870000D01*
X120522619Y-165822380D01*
X120427380Y-165822380D01*
X120284523Y-165870000D01*
X120236904Y-165917619D01*
X119522619Y-165822380D02*
X119522619Y-166536666D01*
X119570238Y-166679523D01*
X119665476Y-166774761D01*
X119808333Y-166822380D01*
X119903571Y-166822380D01*
X118570238Y-166822380D02*
X119046428Y-166822380D01*
X119046428Y-165822380D01*
X117665476Y-166727142D02*
X117713095Y-166774761D01*
X117855952Y-166822380D01*
X117951190Y-166822380D01*
X118094047Y-166774761D01*
X118189285Y-166679523D01*
X118236904Y-166584285D01*
X118284523Y-166393809D01*
X118284523Y-166250952D01*
X118236904Y-166060476D01*
X118189285Y-165965238D01*
X118094047Y-165870000D01*
X117951190Y-165822380D01*
X117855952Y-165822380D01*
X117713095Y-165870000D01*
X117665476Y-165917619D01*
X116951190Y-165822380D02*
X116951190Y-166536666D01*
X116998809Y-166679523D01*
X117094047Y-166774761D01*
X117236904Y-166822380D01*
X117332142Y-166822380D01*
X115998809Y-166822380D02*
X116475000Y-166822380D01*
X116475000Y-165822380D01*
X115094047Y-166727142D02*
X115141666Y-166774761D01*
X115284523Y-166822380D01*
X115379761Y-166822380D01*
X115522619Y-166774761D01*
X115617857Y-166679523D01*
X115665476Y-166584285D01*
X115713095Y-166393809D01*
X115713095Y-166250952D01*
X115665476Y-166060476D01*
X115617857Y-165965238D01*
X115522619Y-165870000D01*
X115379761Y-165822380D01*
X115284523Y-165822380D01*
X115141666Y-165870000D01*
X115094047Y-165917619D01*
X114379761Y-165822380D02*
X114379761Y-166536666D01*
X114427380Y-166679523D01*
X114522619Y-166774761D01*
X114665476Y-166822380D01*
X114760714Y-166822380D01*
X113427380Y-166822380D02*
X113903571Y-166822380D01*
X113903571Y-165822380D01*
X112522619Y-166727142D02*
X112570238Y-166774761D01*
X112713095Y-166822380D01*
X112808333Y-166822380D01*
X112951190Y-166774761D01*
X113046428Y-166679523D01*
X113094047Y-166584285D01*
X113141666Y-166393809D01*
X113141666Y-166250952D01*
X113094047Y-166060476D01*
X113046428Y-165965238D01*
X112951190Y-165870000D01*
X112808333Y-165822380D01*
X112713095Y-165822380D01*
X112570238Y-165870000D01*
X112522619Y-165917619D01*
D11*
%TO.C,S1*%
X117079000Y-76952000D02*
X117079000Y-77968000D01*
X117079000Y-77460000D02*
X117841000Y-77968000D01*
X117841000Y-76952000D02*
X117079000Y-77460000D01*
X117841000Y-77968000D02*
X117841000Y-76952000D01*
D12*
X115936000Y-76698000D02*
X115936000Y-78222000D01*
X118984000Y-76698000D02*
X115936000Y-76698000D01*
X118984000Y-78222000D02*
X118984000Y-76698000D01*
X115936000Y-78222000D02*
X118984000Y-78222000D01*
%TO.C,S2*%
X115936000Y-97222000D02*
X118984000Y-97222000D01*
X118984000Y-97222000D02*
X118984000Y-95698000D01*
X118984000Y-95698000D02*
X115936000Y-95698000D01*
X115936000Y-95698000D02*
X115936000Y-97222000D01*
D11*
X117841000Y-96968000D02*
X117841000Y-95952000D01*
X117841000Y-95952000D02*
X117079000Y-96460000D01*
X117079000Y-96460000D02*
X117841000Y-96968000D01*
X117079000Y-95952000D02*
X117079000Y-96968000D01*
%TO.C,S3*%
X117079000Y-114952000D02*
X117079000Y-115968000D01*
X117079000Y-115460000D02*
X117841000Y-115968000D01*
X117841000Y-114952000D02*
X117079000Y-115460000D01*
X117841000Y-115968000D02*
X117841000Y-114952000D01*
D12*
X115936000Y-114698000D02*
X115936000Y-116222000D01*
X118984000Y-114698000D02*
X115936000Y-114698000D01*
X118984000Y-116222000D02*
X118984000Y-114698000D01*
X115936000Y-116222000D02*
X118984000Y-116222000D01*
%TO.C,S4*%
X115936000Y-135222000D02*
X118984000Y-135222000D01*
X118984000Y-135222000D02*
X118984000Y-133698000D01*
X118984000Y-133698000D02*
X115936000Y-133698000D01*
X115936000Y-133698000D02*
X115936000Y-135222000D01*
D11*
X117841000Y-134968000D02*
X117841000Y-133952000D01*
X117841000Y-133952000D02*
X117079000Y-134460000D01*
X117079000Y-134460000D02*
X117841000Y-134968000D01*
X117079000Y-133952000D02*
X117079000Y-134968000D01*
%TO.C,S5*%
X117079000Y-152952000D02*
X117079000Y-153968000D01*
X117079000Y-153460000D02*
X117841000Y-153968000D01*
X117841000Y-152952000D02*
X117079000Y-153460000D01*
X117841000Y-153968000D02*
X117841000Y-152952000D01*
D12*
X115936000Y-152698000D02*
X115936000Y-154222000D01*
X118984000Y-152698000D02*
X115936000Y-152698000D01*
X118984000Y-154222000D02*
X118984000Y-152698000D01*
X115936000Y-154222000D02*
X118984000Y-154222000D01*
%TO.C,S1*%
D10*
X113269047Y-77531428D02*
X114030952Y-77531428D01*
X113650000Y-77912380D02*
X113650000Y-77150476D01*
%TO.C,S2*%
X113269047Y-96531428D02*
X114030952Y-96531428D01*
X113650000Y-96912380D02*
X113650000Y-96150476D01*
%TO.C,S3*%
X113269047Y-115531428D02*
X114030952Y-115531428D01*
X113650000Y-115912380D02*
X113650000Y-115150476D01*
%TO.C,S4*%
X113269047Y-134531428D02*
X114030952Y-134531428D01*
X113650000Y-134912380D02*
X113650000Y-134150476D01*
%TO.C,S5*%
X113269047Y-153531428D02*
X114030952Y-153531428D01*
X113650000Y-153912380D02*
X113650000Y-153150476D01*
%TD*%
M02*
