%TF.GenerationSoftware,KiCad,Pcbnew,5.1.6-1.fc32*%
%TF.CreationDate,2020-08-03T22:39:13-06:00*%
%TF.ProjectId,5_switch_column,355f7377-6974-4636-985f-636f6c756d6e,01*%
%TF.SameCoordinates,Original*%
%TF.FileFunction,Copper,L2,Bot*%
%TF.FilePolarity,Positive*%
%FSLAX46Y46*%
G04 Gerber Fmt 4.6, Leading zero omitted, Abs format (unit mm)*
G04 Created by KiCad (PCBNEW 5.1.6-1.fc32) date 2020-08-03 22:39:13*
%MOMM*%
%LPD*%
G01*
G04 APERTURE LIST*
%TA.AperFunction,ComponentPad*%
%ADD10C,2.286000*%
%TD*%
%TA.AperFunction,ComponentPad*%
%ADD11R,1.524000X1.524000*%
%TD*%
%TA.AperFunction,ComponentPad*%
%ADD12C,1.524000*%
%TD*%
%TA.AperFunction,Conductor*%
%ADD13C,0.254000*%
%TD*%
G04 APERTURE END LIST*
D10*
%TO.P,S1,1*%
%TO.N,Net-(S1-Pad1)*%
X120000000Y-80000000D03*
%TO.P,S1,2*%
%TO.N,Net-(S1-Pad2)*%
X113650000Y-82540000D03*
D11*
%TO.P,S1,3*%
%TO.N,Net-(S1-Pad1)*%
X120000000Y-77460000D03*
D12*
%TO.P,S1,4*%
%TO.N,Net-(S1-Pad4)*%
X114920000Y-77460000D03*
%TD*%
%TO.P,S2,4*%
%TO.N,Net-(S1-Pad4)*%
X114920000Y-96460000D03*
D11*
%TO.P,S2,3*%
%TO.N,Net-(S2-Pad1)*%
X120000000Y-96460000D03*
D10*
%TO.P,S2,2*%
%TO.N,Net-(S2-Pad2)*%
X113650000Y-101540000D03*
%TO.P,S2,1*%
%TO.N,Net-(S2-Pad1)*%
X120000000Y-99000000D03*
%TD*%
%TO.P,S3,1*%
%TO.N,Net-(S3-Pad1)*%
X120000000Y-118000000D03*
%TO.P,S3,2*%
%TO.N,Net-(S3-Pad2)*%
X113650000Y-120540000D03*
D11*
%TO.P,S3,3*%
%TO.N,Net-(S3-Pad1)*%
X120000000Y-115460000D03*
D12*
%TO.P,S3,4*%
%TO.N,Net-(S1-Pad4)*%
X114920000Y-115460000D03*
%TD*%
%TO.P,S4,4*%
%TO.N,Net-(S1-Pad4)*%
X114920000Y-134460000D03*
D11*
%TO.P,S4,3*%
%TO.N,Net-(S4-Pad1)*%
X120000000Y-134460000D03*
D10*
%TO.P,S4,2*%
%TO.N,Net-(S4-Pad2)*%
X113650000Y-139540000D03*
%TO.P,S4,1*%
%TO.N,Net-(S4-Pad1)*%
X120000000Y-137000000D03*
%TD*%
%TO.P,S5,1*%
%TO.N,Net-(S5-Pad1)*%
X120000000Y-156000000D03*
%TO.P,S5,2*%
%TO.N,Net-(S5-Pad2)*%
X113650000Y-158540000D03*
D11*
%TO.P,S5,3*%
%TO.N,Net-(S5-Pad1)*%
X120000000Y-153460000D03*
D12*
%TO.P,S5,4*%
%TO.N,Net-(S1-Pad4)*%
X114920000Y-153460000D03*
%TD*%
%TO.P,U1,1*%
%TO.N,Net-(S1-Pad4)*%
X111125000Y-73660000D03*
%TO.P,U1,2*%
%TO.N,Net-(S1-Pad2)*%
X113665000Y-73660000D03*
%TO.P,U1,3*%
%TO.N,Net-(S2-Pad2)*%
X116205000Y-73660000D03*
%TO.P,U1,4*%
%TO.N,Net-(S3-Pad2)*%
X118745000Y-73660000D03*
%TO.P,U1,5*%
%TO.N,Net-(S4-Pad2)*%
X121285000Y-73660000D03*
%TO.P,U1,6*%
%TO.N,Net-(S5-Pad2)*%
X123825000Y-73660000D03*
%TO.P,U1,2*%
%TO.N,Net-(S1-Pad2)*%
X113665000Y-72390000D03*
%TO.P,U1,3*%
%TO.N,Net-(S2-Pad2)*%
X116205000Y-72390000D03*
%TO.P,U1,4*%
%TO.N,Net-(S3-Pad2)*%
X118745000Y-72390000D03*
%TO.P,U1,5*%
%TO.N,Net-(S4-Pad2)*%
X121285000Y-72390000D03*
%TO.P,U1,6*%
%TO.N,Net-(S5-Pad2)*%
X123825000Y-72390000D03*
%TD*%
D13*
%TO.N,Net-(S1-Pad4)*%
G36*
X125070001Y-71745163D02*
G01*
X125063005Y-71728273D01*
X124910120Y-71499465D01*
X124715535Y-71304880D01*
X124486727Y-71151995D01*
X124232490Y-71046686D01*
X123962592Y-70993000D01*
X123687408Y-70993000D01*
X123417510Y-71046686D01*
X123163273Y-71151995D01*
X122934465Y-71304880D01*
X122739880Y-71499465D01*
X122586995Y-71728273D01*
X122555000Y-71805515D01*
X122523005Y-71728273D01*
X122370120Y-71499465D01*
X122175535Y-71304880D01*
X121946727Y-71151995D01*
X121692490Y-71046686D01*
X121422592Y-70993000D01*
X121147408Y-70993000D01*
X120877510Y-71046686D01*
X120623273Y-71151995D01*
X120394465Y-71304880D01*
X120199880Y-71499465D01*
X120046995Y-71728273D01*
X120015000Y-71805515D01*
X119983005Y-71728273D01*
X119830120Y-71499465D01*
X119635535Y-71304880D01*
X119406727Y-71151995D01*
X119152490Y-71046686D01*
X118882592Y-70993000D01*
X118607408Y-70993000D01*
X118337510Y-71046686D01*
X118083273Y-71151995D01*
X117854465Y-71304880D01*
X117659880Y-71499465D01*
X117506995Y-71728273D01*
X117475000Y-71805515D01*
X117443005Y-71728273D01*
X117290120Y-71499465D01*
X117095535Y-71304880D01*
X116866727Y-71151995D01*
X116612490Y-71046686D01*
X116342592Y-70993000D01*
X116067408Y-70993000D01*
X115797510Y-71046686D01*
X115543273Y-71151995D01*
X115314465Y-71304880D01*
X115119880Y-71499465D01*
X114966995Y-71728273D01*
X114935000Y-71805515D01*
X114903005Y-71728273D01*
X114750120Y-71499465D01*
X114555535Y-71304880D01*
X114326727Y-71151995D01*
X114072490Y-71046686D01*
X113802592Y-70993000D01*
X113527408Y-70993000D01*
X113257510Y-71046686D01*
X113003273Y-71151995D01*
X112774465Y-71304880D01*
X112579880Y-71499465D01*
X112426995Y-71728273D01*
X112321686Y-71982510D01*
X112268000Y-72252408D01*
X112268000Y-72527592D01*
X112321686Y-72797490D01*
X112415924Y-73025000D01*
X112397308Y-73069943D01*
X112392636Y-73056977D01*
X112330656Y-72941020D01*
X112090565Y-72874040D01*
X111304605Y-73660000D01*
X112090565Y-74445960D01*
X112330656Y-74378980D01*
X112394485Y-74243240D01*
X112426995Y-74321727D01*
X112579880Y-74550535D01*
X112774465Y-74745120D01*
X113003273Y-74898005D01*
X113257510Y-75003314D01*
X113527408Y-75057000D01*
X113802592Y-75057000D01*
X114072490Y-75003314D01*
X114326727Y-74898005D01*
X114555535Y-74745120D01*
X114750120Y-74550535D01*
X114903005Y-74321727D01*
X114935000Y-74244485D01*
X114966995Y-74321727D01*
X115119880Y-74550535D01*
X115314465Y-74745120D01*
X115543273Y-74898005D01*
X115797510Y-75003314D01*
X116067408Y-75057000D01*
X116342592Y-75057000D01*
X116612490Y-75003314D01*
X116866727Y-74898005D01*
X117095535Y-74745120D01*
X117290120Y-74550535D01*
X117443005Y-74321727D01*
X117475000Y-74244485D01*
X117506995Y-74321727D01*
X117659880Y-74550535D01*
X117854465Y-74745120D01*
X118083273Y-74898005D01*
X118337510Y-75003314D01*
X118607408Y-75057000D01*
X118882592Y-75057000D01*
X119152490Y-75003314D01*
X119406727Y-74898005D01*
X119635535Y-74745120D01*
X119830120Y-74550535D01*
X119983005Y-74321727D01*
X120015000Y-74244485D01*
X120046995Y-74321727D01*
X120199880Y-74550535D01*
X120394465Y-74745120D01*
X120623273Y-74898005D01*
X120877510Y-75003314D01*
X121147408Y-75057000D01*
X121422592Y-75057000D01*
X121692490Y-75003314D01*
X121946727Y-74898005D01*
X122175535Y-74745120D01*
X122370120Y-74550535D01*
X122523005Y-74321727D01*
X122555000Y-74244485D01*
X122586995Y-74321727D01*
X122739880Y-74550535D01*
X122934465Y-74745120D01*
X123163273Y-74898005D01*
X123417510Y-75003314D01*
X123687408Y-75057000D01*
X123962592Y-75057000D01*
X124232490Y-75003314D01*
X124486727Y-74898005D01*
X124715535Y-74745120D01*
X124910120Y-74550535D01*
X125063005Y-74321727D01*
X125070001Y-74304837D01*
X125070000Y-168250000D01*
X109880000Y-168250000D01*
X109880000Y-160933740D01*
X110895000Y-160933740D01*
X110895000Y-161226260D01*
X110952068Y-161513158D01*
X111064010Y-161783411D01*
X111226525Y-162026632D01*
X111433368Y-162233475D01*
X111676589Y-162395990D01*
X111946842Y-162507932D01*
X112233740Y-162565000D01*
X112526260Y-162565000D01*
X112813158Y-162507932D01*
X113083411Y-162395990D01*
X113326632Y-162233475D01*
X113533475Y-162026632D01*
X113695990Y-161783411D01*
X113807932Y-161513158D01*
X113865000Y-161226260D01*
X113865000Y-160933740D01*
X113842471Y-160820475D01*
X114825000Y-160820475D01*
X114825000Y-161339525D01*
X114926261Y-161848601D01*
X115124893Y-162328141D01*
X115413262Y-162759715D01*
X115780285Y-163126738D01*
X116211859Y-163415107D01*
X116691399Y-163613739D01*
X117200475Y-163715000D01*
X117719525Y-163715000D01*
X118228601Y-163613739D01*
X118708141Y-163415107D01*
X119139715Y-163126738D01*
X119506738Y-162759715D01*
X119795107Y-162328141D01*
X119993739Y-161848601D01*
X120095000Y-161339525D01*
X120095000Y-160933740D01*
X121055000Y-160933740D01*
X121055000Y-161226260D01*
X121112068Y-161513158D01*
X121224010Y-161783411D01*
X121386525Y-162026632D01*
X121593368Y-162233475D01*
X121836589Y-162395990D01*
X122106842Y-162507932D01*
X122393740Y-162565000D01*
X122686260Y-162565000D01*
X122973158Y-162507932D01*
X123243411Y-162395990D01*
X123486632Y-162233475D01*
X123693475Y-162026632D01*
X123855990Y-161783411D01*
X123967932Y-161513158D01*
X124025000Y-161226260D01*
X124025000Y-160933740D01*
X123967932Y-160646842D01*
X123855990Y-160376589D01*
X123693475Y-160133368D01*
X123486632Y-159926525D01*
X123243411Y-159764010D01*
X122973158Y-159652068D01*
X122686260Y-159595000D01*
X122393740Y-159595000D01*
X122106842Y-159652068D01*
X121836589Y-159764010D01*
X121593368Y-159926525D01*
X121386525Y-160133368D01*
X121224010Y-160376589D01*
X121112068Y-160646842D01*
X121055000Y-160933740D01*
X120095000Y-160933740D01*
X120095000Y-160820475D01*
X119993739Y-160311399D01*
X119795107Y-159831859D01*
X119506738Y-159400285D01*
X119139715Y-159033262D01*
X118708141Y-158744893D01*
X118228601Y-158546261D01*
X117719525Y-158445000D01*
X117200475Y-158445000D01*
X116691399Y-158546261D01*
X116211859Y-158744893D01*
X115780285Y-159033262D01*
X115413262Y-159400285D01*
X115124893Y-159831859D01*
X114926261Y-160311399D01*
X114825000Y-160820475D01*
X113842471Y-160820475D01*
X113807932Y-160646842D01*
X113695990Y-160376589D01*
X113656842Y-160318000D01*
X113825118Y-160318000D01*
X114168623Y-160249672D01*
X114492199Y-160115643D01*
X114783409Y-159921063D01*
X115031063Y-159673409D01*
X115225643Y-159382199D01*
X115359672Y-159058623D01*
X115428000Y-158715118D01*
X115428000Y-158364882D01*
X115359672Y-158021377D01*
X115225643Y-157697801D01*
X115031063Y-157406591D01*
X114783409Y-157158937D01*
X114492199Y-156964357D01*
X114168623Y-156830328D01*
X113825118Y-156762000D01*
X113474882Y-156762000D01*
X113131377Y-156830328D01*
X112807801Y-156964357D01*
X112516591Y-157158937D01*
X112268937Y-157406591D01*
X112074357Y-157697801D01*
X111940328Y-158021377D01*
X111872000Y-158364882D01*
X111872000Y-158715118D01*
X111940328Y-159058623D01*
X112074357Y-159382199D01*
X112218563Y-159598019D01*
X111946842Y-159652068D01*
X111676589Y-159764010D01*
X111433368Y-159926525D01*
X111226525Y-160133368D01*
X111064010Y-160376589D01*
X110952068Y-160646842D01*
X110895000Y-160933740D01*
X109880000Y-160933740D01*
X109880000Y-155824882D01*
X118222000Y-155824882D01*
X118222000Y-156175118D01*
X118290328Y-156518623D01*
X118424357Y-156842199D01*
X118618937Y-157133409D01*
X118866591Y-157381063D01*
X119157801Y-157575643D01*
X119481377Y-157709672D01*
X119824882Y-157778000D01*
X120175118Y-157778000D01*
X120518623Y-157709672D01*
X120842199Y-157575643D01*
X121133409Y-157381063D01*
X121381063Y-157133409D01*
X121575643Y-156842199D01*
X121709672Y-156518623D01*
X121778000Y-156175118D01*
X121778000Y-155824882D01*
X121709672Y-155481377D01*
X121575643Y-155157801D01*
X121381063Y-154866591D01*
X121199164Y-154684692D01*
X121213185Y-154673185D01*
X121292537Y-154576494D01*
X121351502Y-154466180D01*
X121387812Y-154346482D01*
X121400072Y-154222000D01*
X121400072Y-152698000D01*
X121387812Y-152573518D01*
X121351502Y-152453820D01*
X121292537Y-152343506D01*
X121213185Y-152246815D01*
X121116494Y-152167463D01*
X121006180Y-152108498D01*
X120886482Y-152072188D01*
X120762000Y-152059928D01*
X119238000Y-152059928D01*
X119113518Y-152072188D01*
X118993820Y-152108498D01*
X118883506Y-152167463D01*
X118786815Y-152246815D01*
X118707463Y-152343506D01*
X118648498Y-152453820D01*
X118612188Y-152573518D01*
X118599928Y-152698000D01*
X118599928Y-154222000D01*
X118612188Y-154346482D01*
X118648498Y-154466180D01*
X118707463Y-154576494D01*
X118786815Y-154673185D01*
X118800836Y-154684692D01*
X118618937Y-154866591D01*
X118424357Y-155157801D01*
X118290328Y-155481377D01*
X118222000Y-155824882D01*
X109880000Y-155824882D01*
X109880000Y-154425565D01*
X114134040Y-154425565D01*
X114201020Y-154665656D01*
X114450048Y-154782756D01*
X114717135Y-154849023D01*
X114992017Y-154861910D01*
X115264133Y-154820922D01*
X115523023Y-154727636D01*
X115638980Y-154665656D01*
X115705960Y-154425565D01*
X114920000Y-153639605D01*
X114134040Y-154425565D01*
X109880000Y-154425565D01*
X109880000Y-153532017D01*
X113518090Y-153532017D01*
X113559078Y-153804133D01*
X113652364Y-154063023D01*
X113714344Y-154178980D01*
X113954435Y-154245960D01*
X114740395Y-153460000D01*
X115099605Y-153460000D01*
X115885565Y-154245960D01*
X116125656Y-154178980D01*
X116242756Y-153929952D01*
X116309023Y-153662865D01*
X116321910Y-153387983D01*
X116280922Y-153115867D01*
X116187636Y-152856977D01*
X116125656Y-152741020D01*
X115885565Y-152674040D01*
X115099605Y-153460000D01*
X114740395Y-153460000D01*
X113954435Y-152674040D01*
X113714344Y-152741020D01*
X113597244Y-152990048D01*
X113530977Y-153257135D01*
X113518090Y-153532017D01*
X109880000Y-153532017D01*
X109880000Y-152494435D01*
X114134040Y-152494435D01*
X114920000Y-153280395D01*
X115705960Y-152494435D01*
X115638980Y-152254344D01*
X115389952Y-152137244D01*
X115122865Y-152070977D01*
X114847983Y-152058090D01*
X114575867Y-152099078D01*
X114316977Y-152192364D01*
X114201020Y-152254344D01*
X114134040Y-152494435D01*
X109880000Y-152494435D01*
X109880000Y-141933740D01*
X110895000Y-141933740D01*
X110895000Y-142226260D01*
X110952068Y-142513158D01*
X111064010Y-142783411D01*
X111226525Y-143026632D01*
X111433368Y-143233475D01*
X111676589Y-143395990D01*
X111946842Y-143507932D01*
X112233740Y-143565000D01*
X112526260Y-143565000D01*
X112813158Y-143507932D01*
X113083411Y-143395990D01*
X113326632Y-143233475D01*
X113533475Y-143026632D01*
X113695990Y-142783411D01*
X113807932Y-142513158D01*
X113865000Y-142226260D01*
X113865000Y-141933740D01*
X113842471Y-141820475D01*
X114825000Y-141820475D01*
X114825000Y-142339525D01*
X114926261Y-142848601D01*
X115124893Y-143328141D01*
X115413262Y-143759715D01*
X115780285Y-144126738D01*
X116211859Y-144415107D01*
X116691399Y-144613739D01*
X117200475Y-144715000D01*
X117719525Y-144715000D01*
X118228601Y-144613739D01*
X118708141Y-144415107D01*
X119139715Y-144126738D01*
X119506738Y-143759715D01*
X119795107Y-143328141D01*
X119993739Y-142848601D01*
X120095000Y-142339525D01*
X120095000Y-141933740D01*
X121055000Y-141933740D01*
X121055000Y-142226260D01*
X121112068Y-142513158D01*
X121224010Y-142783411D01*
X121386525Y-143026632D01*
X121593368Y-143233475D01*
X121836589Y-143395990D01*
X122106842Y-143507932D01*
X122393740Y-143565000D01*
X122686260Y-143565000D01*
X122973158Y-143507932D01*
X123243411Y-143395990D01*
X123486632Y-143233475D01*
X123693475Y-143026632D01*
X123855990Y-142783411D01*
X123967932Y-142513158D01*
X124025000Y-142226260D01*
X124025000Y-141933740D01*
X123967932Y-141646842D01*
X123855990Y-141376589D01*
X123693475Y-141133368D01*
X123486632Y-140926525D01*
X123243411Y-140764010D01*
X122973158Y-140652068D01*
X122686260Y-140595000D01*
X122393740Y-140595000D01*
X122106842Y-140652068D01*
X121836589Y-140764010D01*
X121593368Y-140926525D01*
X121386525Y-141133368D01*
X121224010Y-141376589D01*
X121112068Y-141646842D01*
X121055000Y-141933740D01*
X120095000Y-141933740D01*
X120095000Y-141820475D01*
X119993739Y-141311399D01*
X119795107Y-140831859D01*
X119506738Y-140400285D01*
X119139715Y-140033262D01*
X118708141Y-139744893D01*
X118228601Y-139546261D01*
X117719525Y-139445000D01*
X117200475Y-139445000D01*
X116691399Y-139546261D01*
X116211859Y-139744893D01*
X115780285Y-140033262D01*
X115413262Y-140400285D01*
X115124893Y-140831859D01*
X114926261Y-141311399D01*
X114825000Y-141820475D01*
X113842471Y-141820475D01*
X113807932Y-141646842D01*
X113695990Y-141376589D01*
X113656842Y-141318000D01*
X113825118Y-141318000D01*
X114168623Y-141249672D01*
X114492199Y-141115643D01*
X114783409Y-140921063D01*
X115031063Y-140673409D01*
X115225643Y-140382199D01*
X115359672Y-140058623D01*
X115428000Y-139715118D01*
X115428000Y-139364882D01*
X115359672Y-139021377D01*
X115225643Y-138697801D01*
X115031063Y-138406591D01*
X114783409Y-138158937D01*
X114492199Y-137964357D01*
X114168623Y-137830328D01*
X113825118Y-137762000D01*
X113474882Y-137762000D01*
X113131377Y-137830328D01*
X112807801Y-137964357D01*
X112516591Y-138158937D01*
X112268937Y-138406591D01*
X112074357Y-138697801D01*
X111940328Y-139021377D01*
X111872000Y-139364882D01*
X111872000Y-139715118D01*
X111940328Y-140058623D01*
X112074357Y-140382199D01*
X112218563Y-140598019D01*
X111946842Y-140652068D01*
X111676589Y-140764010D01*
X111433368Y-140926525D01*
X111226525Y-141133368D01*
X111064010Y-141376589D01*
X110952068Y-141646842D01*
X110895000Y-141933740D01*
X109880000Y-141933740D01*
X109880000Y-136824882D01*
X118222000Y-136824882D01*
X118222000Y-137175118D01*
X118290328Y-137518623D01*
X118424357Y-137842199D01*
X118618937Y-138133409D01*
X118866591Y-138381063D01*
X119157801Y-138575643D01*
X119481377Y-138709672D01*
X119824882Y-138778000D01*
X120175118Y-138778000D01*
X120518623Y-138709672D01*
X120842199Y-138575643D01*
X121133409Y-138381063D01*
X121381063Y-138133409D01*
X121575643Y-137842199D01*
X121709672Y-137518623D01*
X121778000Y-137175118D01*
X121778000Y-136824882D01*
X121709672Y-136481377D01*
X121575643Y-136157801D01*
X121381063Y-135866591D01*
X121199164Y-135684692D01*
X121213185Y-135673185D01*
X121292537Y-135576494D01*
X121351502Y-135466180D01*
X121387812Y-135346482D01*
X121400072Y-135222000D01*
X121400072Y-133698000D01*
X121387812Y-133573518D01*
X121351502Y-133453820D01*
X121292537Y-133343506D01*
X121213185Y-133246815D01*
X121116494Y-133167463D01*
X121006180Y-133108498D01*
X120886482Y-133072188D01*
X120762000Y-133059928D01*
X119238000Y-133059928D01*
X119113518Y-133072188D01*
X118993820Y-133108498D01*
X118883506Y-133167463D01*
X118786815Y-133246815D01*
X118707463Y-133343506D01*
X118648498Y-133453820D01*
X118612188Y-133573518D01*
X118599928Y-133698000D01*
X118599928Y-135222000D01*
X118612188Y-135346482D01*
X118648498Y-135466180D01*
X118707463Y-135576494D01*
X118786815Y-135673185D01*
X118800836Y-135684692D01*
X118618937Y-135866591D01*
X118424357Y-136157801D01*
X118290328Y-136481377D01*
X118222000Y-136824882D01*
X109880000Y-136824882D01*
X109880000Y-135425565D01*
X114134040Y-135425565D01*
X114201020Y-135665656D01*
X114450048Y-135782756D01*
X114717135Y-135849023D01*
X114992017Y-135861910D01*
X115264133Y-135820922D01*
X115523023Y-135727636D01*
X115638980Y-135665656D01*
X115705960Y-135425565D01*
X114920000Y-134639605D01*
X114134040Y-135425565D01*
X109880000Y-135425565D01*
X109880000Y-134532017D01*
X113518090Y-134532017D01*
X113559078Y-134804133D01*
X113652364Y-135063023D01*
X113714344Y-135178980D01*
X113954435Y-135245960D01*
X114740395Y-134460000D01*
X115099605Y-134460000D01*
X115885565Y-135245960D01*
X116125656Y-135178980D01*
X116242756Y-134929952D01*
X116309023Y-134662865D01*
X116321910Y-134387983D01*
X116280922Y-134115867D01*
X116187636Y-133856977D01*
X116125656Y-133741020D01*
X115885565Y-133674040D01*
X115099605Y-134460000D01*
X114740395Y-134460000D01*
X113954435Y-133674040D01*
X113714344Y-133741020D01*
X113597244Y-133990048D01*
X113530977Y-134257135D01*
X113518090Y-134532017D01*
X109880000Y-134532017D01*
X109880000Y-133494435D01*
X114134040Y-133494435D01*
X114920000Y-134280395D01*
X115705960Y-133494435D01*
X115638980Y-133254344D01*
X115389952Y-133137244D01*
X115122865Y-133070977D01*
X114847983Y-133058090D01*
X114575867Y-133099078D01*
X114316977Y-133192364D01*
X114201020Y-133254344D01*
X114134040Y-133494435D01*
X109880000Y-133494435D01*
X109880000Y-122933740D01*
X110895000Y-122933740D01*
X110895000Y-123226260D01*
X110952068Y-123513158D01*
X111064010Y-123783411D01*
X111226525Y-124026632D01*
X111433368Y-124233475D01*
X111676589Y-124395990D01*
X111946842Y-124507932D01*
X112233740Y-124565000D01*
X112526260Y-124565000D01*
X112813158Y-124507932D01*
X113083411Y-124395990D01*
X113326632Y-124233475D01*
X113533475Y-124026632D01*
X113695990Y-123783411D01*
X113807932Y-123513158D01*
X113865000Y-123226260D01*
X113865000Y-122933740D01*
X113842471Y-122820475D01*
X114825000Y-122820475D01*
X114825000Y-123339525D01*
X114926261Y-123848601D01*
X115124893Y-124328141D01*
X115413262Y-124759715D01*
X115780285Y-125126738D01*
X116211859Y-125415107D01*
X116691399Y-125613739D01*
X117200475Y-125715000D01*
X117719525Y-125715000D01*
X118228601Y-125613739D01*
X118708141Y-125415107D01*
X119139715Y-125126738D01*
X119506738Y-124759715D01*
X119795107Y-124328141D01*
X119993739Y-123848601D01*
X120095000Y-123339525D01*
X120095000Y-122933740D01*
X121055000Y-122933740D01*
X121055000Y-123226260D01*
X121112068Y-123513158D01*
X121224010Y-123783411D01*
X121386525Y-124026632D01*
X121593368Y-124233475D01*
X121836589Y-124395990D01*
X122106842Y-124507932D01*
X122393740Y-124565000D01*
X122686260Y-124565000D01*
X122973158Y-124507932D01*
X123243411Y-124395990D01*
X123486632Y-124233475D01*
X123693475Y-124026632D01*
X123855990Y-123783411D01*
X123967932Y-123513158D01*
X124025000Y-123226260D01*
X124025000Y-122933740D01*
X123967932Y-122646842D01*
X123855990Y-122376589D01*
X123693475Y-122133368D01*
X123486632Y-121926525D01*
X123243411Y-121764010D01*
X122973158Y-121652068D01*
X122686260Y-121595000D01*
X122393740Y-121595000D01*
X122106842Y-121652068D01*
X121836589Y-121764010D01*
X121593368Y-121926525D01*
X121386525Y-122133368D01*
X121224010Y-122376589D01*
X121112068Y-122646842D01*
X121055000Y-122933740D01*
X120095000Y-122933740D01*
X120095000Y-122820475D01*
X119993739Y-122311399D01*
X119795107Y-121831859D01*
X119506738Y-121400285D01*
X119139715Y-121033262D01*
X118708141Y-120744893D01*
X118228601Y-120546261D01*
X117719525Y-120445000D01*
X117200475Y-120445000D01*
X116691399Y-120546261D01*
X116211859Y-120744893D01*
X115780285Y-121033262D01*
X115413262Y-121400285D01*
X115124893Y-121831859D01*
X114926261Y-122311399D01*
X114825000Y-122820475D01*
X113842471Y-122820475D01*
X113807932Y-122646842D01*
X113695990Y-122376589D01*
X113656842Y-122318000D01*
X113825118Y-122318000D01*
X114168623Y-122249672D01*
X114492199Y-122115643D01*
X114783409Y-121921063D01*
X115031063Y-121673409D01*
X115225643Y-121382199D01*
X115359672Y-121058623D01*
X115428000Y-120715118D01*
X115428000Y-120364882D01*
X115359672Y-120021377D01*
X115225643Y-119697801D01*
X115031063Y-119406591D01*
X114783409Y-119158937D01*
X114492199Y-118964357D01*
X114168623Y-118830328D01*
X113825118Y-118762000D01*
X113474882Y-118762000D01*
X113131377Y-118830328D01*
X112807801Y-118964357D01*
X112516591Y-119158937D01*
X112268937Y-119406591D01*
X112074357Y-119697801D01*
X111940328Y-120021377D01*
X111872000Y-120364882D01*
X111872000Y-120715118D01*
X111940328Y-121058623D01*
X112074357Y-121382199D01*
X112218563Y-121598019D01*
X111946842Y-121652068D01*
X111676589Y-121764010D01*
X111433368Y-121926525D01*
X111226525Y-122133368D01*
X111064010Y-122376589D01*
X110952068Y-122646842D01*
X110895000Y-122933740D01*
X109880000Y-122933740D01*
X109880000Y-117824882D01*
X118222000Y-117824882D01*
X118222000Y-118175118D01*
X118290328Y-118518623D01*
X118424357Y-118842199D01*
X118618937Y-119133409D01*
X118866591Y-119381063D01*
X119157801Y-119575643D01*
X119481377Y-119709672D01*
X119824882Y-119778000D01*
X120175118Y-119778000D01*
X120518623Y-119709672D01*
X120842199Y-119575643D01*
X121133409Y-119381063D01*
X121381063Y-119133409D01*
X121575643Y-118842199D01*
X121709672Y-118518623D01*
X121778000Y-118175118D01*
X121778000Y-117824882D01*
X121709672Y-117481377D01*
X121575643Y-117157801D01*
X121381063Y-116866591D01*
X121199164Y-116684692D01*
X121213185Y-116673185D01*
X121292537Y-116576494D01*
X121351502Y-116466180D01*
X121387812Y-116346482D01*
X121400072Y-116222000D01*
X121400072Y-114698000D01*
X121387812Y-114573518D01*
X121351502Y-114453820D01*
X121292537Y-114343506D01*
X121213185Y-114246815D01*
X121116494Y-114167463D01*
X121006180Y-114108498D01*
X120886482Y-114072188D01*
X120762000Y-114059928D01*
X119238000Y-114059928D01*
X119113518Y-114072188D01*
X118993820Y-114108498D01*
X118883506Y-114167463D01*
X118786815Y-114246815D01*
X118707463Y-114343506D01*
X118648498Y-114453820D01*
X118612188Y-114573518D01*
X118599928Y-114698000D01*
X118599928Y-116222000D01*
X118612188Y-116346482D01*
X118648498Y-116466180D01*
X118707463Y-116576494D01*
X118786815Y-116673185D01*
X118800836Y-116684692D01*
X118618937Y-116866591D01*
X118424357Y-117157801D01*
X118290328Y-117481377D01*
X118222000Y-117824882D01*
X109880000Y-117824882D01*
X109880000Y-116425565D01*
X114134040Y-116425565D01*
X114201020Y-116665656D01*
X114450048Y-116782756D01*
X114717135Y-116849023D01*
X114992017Y-116861910D01*
X115264133Y-116820922D01*
X115523023Y-116727636D01*
X115638980Y-116665656D01*
X115705960Y-116425565D01*
X114920000Y-115639605D01*
X114134040Y-116425565D01*
X109880000Y-116425565D01*
X109880000Y-115532017D01*
X113518090Y-115532017D01*
X113559078Y-115804133D01*
X113652364Y-116063023D01*
X113714344Y-116178980D01*
X113954435Y-116245960D01*
X114740395Y-115460000D01*
X115099605Y-115460000D01*
X115885565Y-116245960D01*
X116125656Y-116178980D01*
X116242756Y-115929952D01*
X116309023Y-115662865D01*
X116321910Y-115387983D01*
X116280922Y-115115867D01*
X116187636Y-114856977D01*
X116125656Y-114741020D01*
X115885565Y-114674040D01*
X115099605Y-115460000D01*
X114740395Y-115460000D01*
X113954435Y-114674040D01*
X113714344Y-114741020D01*
X113597244Y-114990048D01*
X113530977Y-115257135D01*
X113518090Y-115532017D01*
X109880000Y-115532017D01*
X109880000Y-114494435D01*
X114134040Y-114494435D01*
X114920000Y-115280395D01*
X115705960Y-114494435D01*
X115638980Y-114254344D01*
X115389952Y-114137244D01*
X115122865Y-114070977D01*
X114847983Y-114058090D01*
X114575867Y-114099078D01*
X114316977Y-114192364D01*
X114201020Y-114254344D01*
X114134040Y-114494435D01*
X109880000Y-114494435D01*
X109880000Y-103933740D01*
X110895000Y-103933740D01*
X110895000Y-104226260D01*
X110952068Y-104513158D01*
X111064010Y-104783411D01*
X111226525Y-105026632D01*
X111433368Y-105233475D01*
X111676589Y-105395990D01*
X111946842Y-105507932D01*
X112233740Y-105565000D01*
X112526260Y-105565000D01*
X112813158Y-105507932D01*
X113083411Y-105395990D01*
X113326632Y-105233475D01*
X113533475Y-105026632D01*
X113695990Y-104783411D01*
X113807932Y-104513158D01*
X113865000Y-104226260D01*
X113865000Y-103933740D01*
X113842471Y-103820475D01*
X114825000Y-103820475D01*
X114825000Y-104339525D01*
X114926261Y-104848601D01*
X115124893Y-105328141D01*
X115413262Y-105759715D01*
X115780285Y-106126738D01*
X116211859Y-106415107D01*
X116691399Y-106613739D01*
X117200475Y-106715000D01*
X117719525Y-106715000D01*
X118228601Y-106613739D01*
X118708141Y-106415107D01*
X119139715Y-106126738D01*
X119506738Y-105759715D01*
X119795107Y-105328141D01*
X119993739Y-104848601D01*
X120095000Y-104339525D01*
X120095000Y-103933740D01*
X121055000Y-103933740D01*
X121055000Y-104226260D01*
X121112068Y-104513158D01*
X121224010Y-104783411D01*
X121386525Y-105026632D01*
X121593368Y-105233475D01*
X121836589Y-105395990D01*
X122106842Y-105507932D01*
X122393740Y-105565000D01*
X122686260Y-105565000D01*
X122973158Y-105507932D01*
X123243411Y-105395990D01*
X123486632Y-105233475D01*
X123693475Y-105026632D01*
X123855990Y-104783411D01*
X123967932Y-104513158D01*
X124025000Y-104226260D01*
X124025000Y-103933740D01*
X123967932Y-103646842D01*
X123855990Y-103376589D01*
X123693475Y-103133368D01*
X123486632Y-102926525D01*
X123243411Y-102764010D01*
X122973158Y-102652068D01*
X122686260Y-102595000D01*
X122393740Y-102595000D01*
X122106842Y-102652068D01*
X121836589Y-102764010D01*
X121593368Y-102926525D01*
X121386525Y-103133368D01*
X121224010Y-103376589D01*
X121112068Y-103646842D01*
X121055000Y-103933740D01*
X120095000Y-103933740D01*
X120095000Y-103820475D01*
X119993739Y-103311399D01*
X119795107Y-102831859D01*
X119506738Y-102400285D01*
X119139715Y-102033262D01*
X118708141Y-101744893D01*
X118228601Y-101546261D01*
X117719525Y-101445000D01*
X117200475Y-101445000D01*
X116691399Y-101546261D01*
X116211859Y-101744893D01*
X115780285Y-102033262D01*
X115413262Y-102400285D01*
X115124893Y-102831859D01*
X114926261Y-103311399D01*
X114825000Y-103820475D01*
X113842471Y-103820475D01*
X113807932Y-103646842D01*
X113695990Y-103376589D01*
X113656842Y-103318000D01*
X113825118Y-103318000D01*
X114168623Y-103249672D01*
X114492199Y-103115643D01*
X114783409Y-102921063D01*
X115031063Y-102673409D01*
X115225643Y-102382199D01*
X115359672Y-102058623D01*
X115428000Y-101715118D01*
X115428000Y-101364882D01*
X115359672Y-101021377D01*
X115225643Y-100697801D01*
X115031063Y-100406591D01*
X114783409Y-100158937D01*
X114492199Y-99964357D01*
X114168623Y-99830328D01*
X113825118Y-99762000D01*
X113474882Y-99762000D01*
X113131377Y-99830328D01*
X112807801Y-99964357D01*
X112516591Y-100158937D01*
X112268937Y-100406591D01*
X112074357Y-100697801D01*
X111940328Y-101021377D01*
X111872000Y-101364882D01*
X111872000Y-101715118D01*
X111940328Y-102058623D01*
X112074357Y-102382199D01*
X112218563Y-102598019D01*
X111946842Y-102652068D01*
X111676589Y-102764010D01*
X111433368Y-102926525D01*
X111226525Y-103133368D01*
X111064010Y-103376589D01*
X110952068Y-103646842D01*
X110895000Y-103933740D01*
X109880000Y-103933740D01*
X109880000Y-98824882D01*
X118222000Y-98824882D01*
X118222000Y-99175118D01*
X118290328Y-99518623D01*
X118424357Y-99842199D01*
X118618937Y-100133409D01*
X118866591Y-100381063D01*
X119157801Y-100575643D01*
X119481377Y-100709672D01*
X119824882Y-100778000D01*
X120175118Y-100778000D01*
X120518623Y-100709672D01*
X120842199Y-100575643D01*
X121133409Y-100381063D01*
X121381063Y-100133409D01*
X121575643Y-99842199D01*
X121709672Y-99518623D01*
X121778000Y-99175118D01*
X121778000Y-98824882D01*
X121709672Y-98481377D01*
X121575643Y-98157801D01*
X121381063Y-97866591D01*
X121199164Y-97684692D01*
X121213185Y-97673185D01*
X121292537Y-97576494D01*
X121351502Y-97466180D01*
X121387812Y-97346482D01*
X121400072Y-97222000D01*
X121400072Y-95698000D01*
X121387812Y-95573518D01*
X121351502Y-95453820D01*
X121292537Y-95343506D01*
X121213185Y-95246815D01*
X121116494Y-95167463D01*
X121006180Y-95108498D01*
X120886482Y-95072188D01*
X120762000Y-95059928D01*
X119238000Y-95059928D01*
X119113518Y-95072188D01*
X118993820Y-95108498D01*
X118883506Y-95167463D01*
X118786815Y-95246815D01*
X118707463Y-95343506D01*
X118648498Y-95453820D01*
X118612188Y-95573518D01*
X118599928Y-95698000D01*
X118599928Y-97222000D01*
X118612188Y-97346482D01*
X118648498Y-97466180D01*
X118707463Y-97576494D01*
X118786815Y-97673185D01*
X118800836Y-97684692D01*
X118618937Y-97866591D01*
X118424357Y-98157801D01*
X118290328Y-98481377D01*
X118222000Y-98824882D01*
X109880000Y-98824882D01*
X109880000Y-97425565D01*
X114134040Y-97425565D01*
X114201020Y-97665656D01*
X114450048Y-97782756D01*
X114717135Y-97849023D01*
X114992017Y-97861910D01*
X115264133Y-97820922D01*
X115523023Y-97727636D01*
X115638980Y-97665656D01*
X115705960Y-97425565D01*
X114920000Y-96639605D01*
X114134040Y-97425565D01*
X109880000Y-97425565D01*
X109880000Y-96532017D01*
X113518090Y-96532017D01*
X113559078Y-96804133D01*
X113652364Y-97063023D01*
X113714344Y-97178980D01*
X113954435Y-97245960D01*
X114740395Y-96460000D01*
X115099605Y-96460000D01*
X115885565Y-97245960D01*
X116125656Y-97178980D01*
X116242756Y-96929952D01*
X116309023Y-96662865D01*
X116321910Y-96387983D01*
X116280922Y-96115867D01*
X116187636Y-95856977D01*
X116125656Y-95741020D01*
X115885565Y-95674040D01*
X115099605Y-96460000D01*
X114740395Y-96460000D01*
X113954435Y-95674040D01*
X113714344Y-95741020D01*
X113597244Y-95990048D01*
X113530977Y-96257135D01*
X113518090Y-96532017D01*
X109880000Y-96532017D01*
X109880000Y-95494435D01*
X114134040Y-95494435D01*
X114920000Y-96280395D01*
X115705960Y-95494435D01*
X115638980Y-95254344D01*
X115389952Y-95137244D01*
X115122865Y-95070977D01*
X114847983Y-95058090D01*
X114575867Y-95099078D01*
X114316977Y-95192364D01*
X114201020Y-95254344D01*
X114134040Y-95494435D01*
X109880000Y-95494435D01*
X109880000Y-84933740D01*
X110895000Y-84933740D01*
X110895000Y-85226260D01*
X110952068Y-85513158D01*
X111064010Y-85783411D01*
X111226525Y-86026632D01*
X111433368Y-86233475D01*
X111676589Y-86395990D01*
X111946842Y-86507932D01*
X112233740Y-86565000D01*
X112526260Y-86565000D01*
X112813158Y-86507932D01*
X113083411Y-86395990D01*
X113326632Y-86233475D01*
X113533475Y-86026632D01*
X113695990Y-85783411D01*
X113807932Y-85513158D01*
X113865000Y-85226260D01*
X113865000Y-84933740D01*
X113842471Y-84820475D01*
X114825000Y-84820475D01*
X114825000Y-85339525D01*
X114926261Y-85848601D01*
X115124893Y-86328141D01*
X115413262Y-86759715D01*
X115780285Y-87126738D01*
X116211859Y-87415107D01*
X116691399Y-87613739D01*
X117200475Y-87715000D01*
X117719525Y-87715000D01*
X118228601Y-87613739D01*
X118708141Y-87415107D01*
X119139715Y-87126738D01*
X119506738Y-86759715D01*
X119795107Y-86328141D01*
X119993739Y-85848601D01*
X120095000Y-85339525D01*
X120095000Y-84933740D01*
X121055000Y-84933740D01*
X121055000Y-85226260D01*
X121112068Y-85513158D01*
X121224010Y-85783411D01*
X121386525Y-86026632D01*
X121593368Y-86233475D01*
X121836589Y-86395990D01*
X122106842Y-86507932D01*
X122393740Y-86565000D01*
X122686260Y-86565000D01*
X122973158Y-86507932D01*
X123243411Y-86395990D01*
X123486632Y-86233475D01*
X123693475Y-86026632D01*
X123855990Y-85783411D01*
X123967932Y-85513158D01*
X124025000Y-85226260D01*
X124025000Y-84933740D01*
X123967932Y-84646842D01*
X123855990Y-84376589D01*
X123693475Y-84133368D01*
X123486632Y-83926525D01*
X123243411Y-83764010D01*
X122973158Y-83652068D01*
X122686260Y-83595000D01*
X122393740Y-83595000D01*
X122106842Y-83652068D01*
X121836589Y-83764010D01*
X121593368Y-83926525D01*
X121386525Y-84133368D01*
X121224010Y-84376589D01*
X121112068Y-84646842D01*
X121055000Y-84933740D01*
X120095000Y-84933740D01*
X120095000Y-84820475D01*
X119993739Y-84311399D01*
X119795107Y-83831859D01*
X119506738Y-83400285D01*
X119139715Y-83033262D01*
X118708141Y-82744893D01*
X118228601Y-82546261D01*
X117719525Y-82445000D01*
X117200475Y-82445000D01*
X116691399Y-82546261D01*
X116211859Y-82744893D01*
X115780285Y-83033262D01*
X115413262Y-83400285D01*
X115124893Y-83831859D01*
X114926261Y-84311399D01*
X114825000Y-84820475D01*
X113842471Y-84820475D01*
X113807932Y-84646842D01*
X113695990Y-84376589D01*
X113656842Y-84318000D01*
X113825118Y-84318000D01*
X114168623Y-84249672D01*
X114492199Y-84115643D01*
X114783409Y-83921063D01*
X115031063Y-83673409D01*
X115225643Y-83382199D01*
X115359672Y-83058623D01*
X115428000Y-82715118D01*
X115428000Y-82364882D01*
X115359672Y-82021377D01*
X115225643Y-81697801D01*
X115031063Y-81406591D01*
X114783409Y-81158937D01*
X114492199Y-80964357D01*
X114168623Y-80830328D01*
X113825118Y-80762000D01*
X113474882Y-80762000D01*
X113131377Y-80830328D01*
X112807801Y-80964357D01*
X112516591Y-81158937D01*
X112268937Y-81406591D01*
X112074357Y-81697801D01*
X111940328Y-82021377D01*
X111872000Y-82364882D01*
X111872000Y-82715118D01*
X111940328Y-83058623D01*
X112074357Y-83382199D01*
X112218563Y-83598019D01*
X111946842Y-83652068D01*
X111676589Y-83764010D01*
X111433368Y-83926525D01*
X111226525Y-84133368D01*
X111064010Y-84376589D01*
X110952068Y-84646842D01*
X110895000Y-84933740D01*
X109880000Y-84933740D01*
X109880000Y-79824882D01*
X118222000Y-79824882D01*
X118222000Y-80175118D01*
X118290328Y-80518623D01*
X118424357Y-80842199D01*
X118618937Y-81133409D01*
X118866591Y-81381063D01*
X119157801Y-81575643D01*
X119481377Y-81709672D01*
X119824882Y-81778000D01*
X120175118Y-81778000D01*
X120518623Y-81709672D01*
X120842199Y-81575643D01*
X121133409Y-81381063D01*
X121381063Y-81133409D01*
X121575643Y-80842199D01*
X121709672Y-80518623D01*
X121778000Y-80175118D01*
X121778000Y-79824882D01*
X121709672Y-79481377D01*
X121575643Y-79157801D01*
X121381063Y-78866591D01*
X121199164Y-78684692D01*
X121213185Y-78673185D01*
X121292537Y-78576494D01*
X121351502Y-78466180D01*
X121387812Y-78346482D01*
X121400072Y-78222000D01*
X121400072Y-76698000D01*
X121387812Y-76573518D01*
X121351502Y-76453820D01*
X121292537Y-76343506D01*
X121213185Y-76246815D01*
X121116494Y-76167463D01*
X121006180Y-76108498D01*
X120886482Y-76072188D01*
X120762000Y-76059928D01*
X119238000Y-76059928D01*
X119113518Y-76072188D01*
X118993820Y-76108498D01*
X118883506Y-76167463D01*
X118786815Y-76246815D01*
X118707463Y-76343506D01*
X118648498Y-76453820D01*
X118612188Y-76573518D01*
X118599928Y-76698000D01*
X118599928Y-78222000D01*
X118612188Y-78346482D01*
X118648498Y-78466180D01*
X118707463Y-78576494D01*
X118786815Y-78673185D01*
X118800836Y-78684692D01*
X118618937Y-78866591D01*
X118424357Y-79157801D01*
X118290328Y-79481377D01*
X118222000Y-79824882D01*
X109880000Y-79824882D01*
X109880000Y-78425565D01*
X114134040Y-78425565D01*
X114201020Y-78665656D01*
X114450048Y-78782756D01*
X114717135Y-78849023D01*
X114992017Y-78861910D01*
X115264133Y-78820922D01*
X115523023Y-78727636D01*
X115638980Y-78665656D01*
X115705960Y-78425565D01*
X114920000Y-77639605D01*
X114134040Y-78425565D01*
X109880000Y-78425565D01*
X109880000Y-77532017D01*
X113518090Y-77532017D01*
X113559078Y-77804133D01*
X113652364Y-78063023D01*
X113714344Y-78178980D01*
X113954435Y-78245960D01*
X114740395Y-77460000D01*
X115099605Y-77460000D01*
X115885565Y-78245960D01*
X116125656Y-78178980D01*
X116242756Y-77929952D01*
X116309023Y-77662865D01*
X116321910Y-77387983D01*
X116280922Y-77115867D01*
X116187636Y-76856977D01*
X116125656Y-76741020D01*
X115885565Y-76674040D01*
X115099605Y-77460000D01*
X114740395Y-77460000D01*
X113954435Y-76674040D01*
X113714344Y-76741020D01*
X113597244Y-76990048D01*
X113530977Y-77257135D01*
X113518090Y-77532017D01*
X109880000Y-77532017D01*
X109880000Y-76494435D01*
X114134040Y-76494435D01*
X114920000Y-77280395D01*
X115705960Y-76494435D01*
X115638980Y-76254344D01*
X115389952Y-76137244D01*
X115122865Y-76070977D01*
X114847983Y-76058090D01*
X114575867Y-76099078D01*
X114316977Y-76192364D01*
X114201020Y-76254344D01*
X114134040Y-76494435D01*
X109880000Y-76494435D01*
X109880000Y-74625565D01*
X110339040Y-74625565D01*
X110406020Y-74865656D01*
X110655048Y-74982756D01*
X110922135Y-75049023D01*
X111197017Y-75061910D01*
X111469133Y-75020922D01*
X111728023Y-74927636D01*
X111843980Y-74865656D01*
X111910960Y-74625565D01*
X111125000Y-73839605D01*
X110339040Y-74625565D01*
X109880000Y-74625565D01*
X109880000Y-74305372D01*
X109919344Y-74378980D01*
X110159435Y-74445960D01*
X110945395Y-73660000D01*
X110159435Y-72874040D01*
X109919344Y-72941020D01*
X109880000Y-73024690D01*
X109880000Y-72694435D01*
X110339040Y-72694435D01*
X111125000Y-73480395D01*
X111910960Y-72694435D01*
X111843980Y-72454344D01*
X111594952Y-72337244D01*
X111327865Y-72270977D01*
X111052983Y-72258090D01*
X110780867Y-72299078D01*
X110521977Y-72392364D01*
X110406020Y-72454344D01*
X110339040Y-72694435D01*
X109880000Y-72694435D01*
X109880000Y-69875000D01*
X125070001Y-69875000D01*
X125070001Y-71745163D01*
G37*
X125070001Y-71745163D02*
X125063005Y-71728273D01*
X124910120Y-71499465D01*
X124715535Y-71304880D01*
X124486727Y-71151995D01*
X124232490Y-71046686D01*
X123962592Y-70993000D01*
X123687408Y-70993000D01*
X123417510Y-71046686D01*
X123163273Y-71151995D01*
X122934465Y-71304880D01*
X122739880Y-71499465D01*
X122586995Y-71728273D01*
X122555000Y-71805515D01*
X122523005Y-71728273D01*
X122370120Y-71499465D01*
X122175535Y-71304880D01*
X121946727Y-71151995D01*
X121692490Y-71046686D01*
X121422592Y-70993000D01*
X121147408Y-70993000D01*
X120877510Y-71046686D01*
X120623273Y-71151995D01*
X120394465Y-71304880D01*
X120199880Y-71499465D01*
X120046995Y-71728273D01*
X120015000Y-71805515D01*
X119983005Y-71728273D01*
X119830120Y-71499465D01*
X119635535Y-71304880D01*
X119406727Y-71151995D01*
X119152490Y-71046686D01*
X118882592Y-70993000D01*
X118607408Y-70993000D01*
X118337510Y-71046686D01*
X118083273Y-71151995D01*
X117854465Y-71304880D01*
X117659880Y-71499465D01*
X117506995Y-71728273D01*
X117475000Y-71805515D01*
X117443005Y-71728273D01*
X117290120Y-71499465D01*
X117095535Y-71304880D01*
X116866727Y-71151995D01*
X116612490Y-71046686D01*
X116342592Y-70993000D01*
X116067408Y-70993000D01*
X115797510Y-71046686D01*
X115543273Y-71151995D01*
X115314465Y-71304880D01*
X115119880Y-71499465D01*
X114966995Y-71728273D01*
X114935000Y-71805515D01*
X114903005Y-71728273D01*
X114750120Y-71499465D01*
X114555535Y-71304880D01*
X114326727Y-71151995D01*
X114072490Y-71046686D01*
X113802592Y-70993000D01*
X113527408Y-70993000D01*
X113257510Y-71046686D01*
X113003273Y-71151995D01*
X112774465Y-71304880D01*
X112579880Y-71499465D01*
X112426995Y-71728273D01*
X112321686Y-71982510D01*
X112268000Y-72252408D01*
X112268000Y-72527592D01*
X112321686Y-72797490D01*
X112415924Y-73025000D01*
X112397308Y-73069943D01*
X112392636Y-73056977D01*
X112330656Y-72941020D01*
X112090565Y-72874040D01*
X111304605Y-73660000D01*
X112090565Y-74445960D01*
X112330656Y-74378980D01*
X112394485Y-74243240D01*
X112426995Y-74321727D01*
X112579880Y-74550535D01*
X112774465Y-74745120D01*
X113003273Y-74898005D01*
X113257510Y-75003314D01*
X113527408Y-75057000D01*
X113802592Y-75057000D01*
X114072490Y-75003314D01*
X114326727Y-74898005D01*
X114555535Y-74745120D01*
X114750120Y-74550535D01*
X114903005Y-74321727D01*
X114935000Y-74244485D01*
X114966995Y-74321727D01*
X115119880Y-74550535D01*
X115314465Y-74745120D01*
X115543273Y-74898005D01*
X115797510Y-75003314D01*
X116067408Y-75057000D01*
X116342592Y-75057000D01*
X116612490Y-75003314D01*
X116866727Y-74898005D01*
X117095535Y-74745120D01*
X117290120Y-74550535D01*
X117443005Y-74321727D01*
X117475000Y-74244485D01*
X117506995Y-74321727D01*
X117659880Y-74550535D01*
X117854465Y-74745120D01*
X118083273Y-74898005D01*
X118337510Y-75003314D01*
X118607408Y-75057000D01*
X118882592Y-75057000D01*
X119152490Y-75003314D01*
X119406727Y-74898005D01*
X119635535Y-74745120D01*
X119830120Y-74550535D01*
X119983005Y-74321727D01*
X120015000Y-74244485D01*
X120046995Y-74321727D01*
X120199880Y-74550535D01*
X120394465Y-74745120D01*
X120623273Y-74898005D01*
X120877510Y-75003314D01*
X121147408Y-75057000D01*
X121422592Y-75057000D01*
X121692490Y-75003314D01*
X121946727Y-74898005D01*
X122175535Y-74745120D01*
X122370120Y-74550535D01*
X122523005Y-74321727D01*
X122555000Y-74244485D01*
X122586995Y-74321727D01*
X122739880Y-74550535D01*
X122934465Y-74745120D01*
X123163273Y-74898005D01*
X123417510Y-75003314D01*
X123687408Y-75057000D01*
X123962592Y-75057000D01*
X124232490Y-75003314D01*
X124486727Y-74898005D01*
X124715535Y-74745120D01*
X124910120Y-74550535D01*
X125063005Y-74321727D01*
X125070001Y-74304837D01*
X125070000Y-168250000D01*
X109880000Y-168250000D01*
X109880000Y-160933740D01*
X110895000Y-160933740D01*
X110895000Y-161226260D01*
X110952068Y-161513158D01*
X111064010Y-161783411D01*
X111226525Y-162026632D01*
X111433368Y-162233475D01*
X111676589Y-162395990D01*
X111946842Y-162507932D01*
X112233740Y-162565000D01*
X112526260Y-162565000D01*
X112813158Y-162507932D01*
X113083411Y-162395990D01*
X113326632Y-162233475D01*
X113533475Y-162026632D01*
X113695990Y-161783411D01*
X113807932Y-161513158D01*
X113865000Y-161226260D01*
X113865000Y-160933740D01*
X113842471Y-160820475D01*
X114825000Y-160820475D01*
X114825000Y-161339525D01*
X114926261Y-161848601D01*
X115124893Y-162328141D01*
X115413262Y-162759715D01*
X115780285Y-163126738D01*
X116211859Y-163415107D01*
X116691399Y-163613739D01*
X117200475Y-163715000D01*
X117719525Y-163715000D01*
X118228601Y-163613739D01*
X118708141Y-163415107D01*
X119139715Y-163126738D01*
X119506738Y-162759715D01*
X119795107Y-162328141D01*
X119993739Y-161848601D01*
X120095000Y-161339525D01*
X120095000Y-160933740D01*
X121055000Y-160933740D01*
X121055000Y-161226260D01*
X121112068Y-161513158D01*
X121224010Y-161783411D01*
X121386525Y-162026632D01*
X121593368Y-162233475D01*
X121836589Y-162395990D01*
X122106842Y-162507932D01*
X122393740Y-162565000D01*
X122686260Y-162565000D01*
X122973158Y-162507932D01*
X123243411Y-162395990D01*
X123486632Y-162233475D01*
X123693475Y-162026632D01*
X123855990Y-161783411D01*
X123967932Y-161513158D01*
X124025000Y-161226260D01*
X124025000Y-160933740D01*
X123967932Y-160646842D01*
X123855990Y-160376589D01*
X123693475Y-160133368D01*
X123486632Y-159926525D01*
X123243411Y-159764010D01*
X122973158Y-159652068D01*
X122686260Y-159595000D01*
X122393740Y-159595000D01*
X122106842Y-159652068D01*
X121836589Y-159764010D01*
X121593368Y-159926525D01*
X121386525Y-160133368D01*
X121224010Y-160376589D01*
X121112068Y-160646842D01*
X121055000Y-160933740D01*
X120095000Y-160933740D01*
X120095000Y-160820475D01*
X119993739Y-160311399D01*
X119795107Y-159831859D01*
X119506738Y-159400285D01*
X119139715Y-159033262D01*
X118708141Y-158744893D01*
X118228601Y-158546261D01*
X117719525Y-158445000D01*
X117200475Y-158445000D01*
X116691399Y-158546261D01*
X116211859Y-158744893D01*
X115780285Y-159033262D01*
X115413262Y-159400285D01*
X115124893Y-159831859D01*
X114926261Y-160311399D01*
X114825000Y-160820475D01*
X113842471Y-160820475D01*
X113807932Y-160646842D01*
X113695990Y-160376589D01*
X113656842Y-160318000D01*
X113825118Y-160318000D01*
X114168623Y-160249672D01*
X114492199Y-160115643D01*
X114783409Y-159921063D01*
X115031063Y-159673409D01*
X115225643Y-159382199D01*
X115359672Y-159058623D01*
X115428000Y-158715118D01*
X115428000Y-158364882D01*
X115359672Y-158021377D01*
X115225643Y-157697801D01*
X115031063Y-157406591D01*
X114783409Y-157158937D01*
X114492199Y-156964357D01*
X114168623Y-156830328D01*
X113825118Y-156762000D01*
X113474882Y-156762000D01*
X113131377Y-156830328D01*
X112807801Y-156964357D01*
X112516591Y-157158937D01*
X112268937Y-157406591D01*
X112074357Y-157697801D01*
X111940328Y-158021377D01*
X111872000Y-158364882D01*
X111872000Y-158715118D01*
X111940328Y-159058623D01*
X112074357Y-159382199D01*
X112218563Y-159598019D01*
X111946842Y-159652068D01*
X111676589Y-159764010D01*
X111433368Y-159926525D01*
X111226525Y-160133368D01*
X111064010Y-160376589D01*
X110952068Y-160646842D01*
X110895000Y-160933740D01*
X109880000Y-160933740D01*
X109880000Y-155824882D01*
X118222000Y-155824882D01*
X118222000Y-156175118D01*
X118290328Y-156518623D01*
X118424357Y-156842199D01*
X118618937Y-157133409D01*
X118866591Y-157381063D01*
X119157801Y-157575643D01*
X119481377Y-157709672D01*
X119824882Y-157778000D01*
X120175118Y-157778000D01*
X120518623Y-157709672D01*
X120842199Y-157575643D01*
X121133409Y-157381063D01*
X121381063Y-157133409D01*
X121575643Y-156842199D01*
X121709672Y-156518623D01*
X121778000Y-156175118D01*
X121778000Y-155824882D01*
X121709672Y-155481377D01*
X121575643Y-155157801D01*
X121381063Y-154866591D01*
X121199164Y-154684692D01*
X121213185Y-154673185D01*
X121292537Y-154576494D01*
X121351502Y-154466180D01*
X121387812Y-154346482D01*
X121400072Y-154222000D01*
X121400072Y-152698000D01*
X121387812Y-152573518D01*
X121351502Y-152453820D01*
X121292537Y-152343506D01*
X121213185Y-152246815D01*
X121116494Y-152167463D01*
X121006180Y-152108498D01*
X120886482Y-152072188D01*
X120762000Y-152059928D01*
X119238000Y-152059928D01*
X119113518Y-152072188D01*
X118993820Y-152108498D01*
X118883506Y-152167463D01*
X118786815Y-152246815D01*
X118707463Y-152343506D01*
X118648498Y-152453820D01*
X118612188Y-152573518D01*
X118599928Y-152698000D01*
X118599928Y-154222000D01*
X118612188Y-154346482D01*
X118648498Y-154466180D01*
X118707463Y-154576494D01*
X118786815Y-154673185D01*
X118800836Y-154684692D01*
X118618937Y-154866591D01*
X118424357Y-155157801D01*
X118290328Y-155481377D01*
X118222000Y-155824882D01*
X109880000Y-155824882D01*
X109880000Y-154425565D01*
X114134040Y-154425565D01*
X114201020Y-154665656D01*
X114450048Y-154782756D01*
X114717135Y-154849023D01*
X114992017Y-154861910D01*
X115264133Y-154820922D01*
X115523023Y-154727636D01*
X115638980Y-154665656D01*
X115705960Y-154425565D01*
X114920000Y-153639605D01*
X114134040Y-154425565D01*
X109880000Y-154425565D01*
X109880000Y-153532017D01*
X113518090Y-153532017D01*
X113559078Y-153804133D01*
X113652364Y-154063023D01*
X113714344Y-154178980D01*
X113954435Y-154245960D01*
X114740395Y-153460000D01*
X115099605Y-153460000D01*
X115885565Y-154245960D01*
X116125656Y-154178980D01*
X116242756Y-153929952D01*
X116309023Y-153662865D01*
X116321910Y-153387983D01*
X116280922Y-153115867D01*
X116187636Y-152856977D01*
X116125656Y-152741020D01*
X115885565Y-152674040D01*
X115099605Y-153460000D01*
X114740395Y-153460000D01*
X113954435Y-152674040D01*
X113714344Y-152741020D01*
X113597244Y-152990048D01*
X113530977Y-153257135D01*
X113518090Y-153532017D01*
X109880000Y-153532017D01*
X109880000Y-152494435D01*
X114134040Y-152494435D01*
X114920000Y-153280395D01*
X115705960Y-152494435D01*
X115638980Y-152254344D01*
X115389952Y-152137244D01*
X115122865Y-152070977D01*
X114847983Y-152058090D01*
X114575867Y-152099078D01*
X114316977Y-152192364D01*
X114201020Y-152254344D01*
X114134040Y-152494435D01*
X109880000Y-152494435D01*
X109880000Y-141933740D01*
X110895000Y-141933740D01*
X110895000Y-142226260D01*
X110952068Y-142513158D01*
X111064010Y-142783411D01*
X111226525Y-143026632D01*
X111433368Y-143233475D01*
X111676589Y-143395990D01*
X111946842Y-143507932D01*
X112233740Y-143565000D01*
X112526260Y-143565000D01*
X112813158Y-143507932D01*
X113083411Y-143395990D01*
X113326632Y-143233475D01*
X113533475Y-143026632D01*
X113695990Y-142783411D01*
X113807932Y-142513158D01*
X113865000Y-142226260D01*
X113865000Y-141933740D01*
X113842471Y-141820475D01*
X114825000Y-141820475D01*
X114825000Y-142339525D01*
X114926261Y-142848601D01*
X115124893Y-143328141D01*
X115413262Y-143759715D01*
X115780285Y-144126738D01*
X116211859Y-144415107D01*
X116691399Y-144613739D01*
X117200475Y-144715000D01*
X117719525Y-144715000D01*
X118228601Y-144613739D01*
X118708141Y-144415107D01*
X119139715Y-144126738D01*
X119506738Y-143759715D01*
X119795107Y-143328141D01*
X119993739Y-142848601D01*
X120095000Y-142339525D01*
X120095000Y-141933740D01*
X121055000Y-141933740D01*
X121055000Y-142226260D01*
X121112068Y-142513158D01*
X121224010Y-142783411D01*
X121386525Y-143026632D01*
X121593368Y-143233475D01*
X121836589Y-143395990D01*
X122106842Y-143507932D01*
X122393740Y-143565000D01*
X122686260Y-143565000D01*
X122973158Y-143507932D01*
X123243411Y-143395990D01*
X123486632Y-143233475D01*
X123693475Y-143026632D01*
X123855990Y-142783411D01*
X123967932Y-142513158D01*
X124025000Y-142226260D01*
X124025000Y-141933740D01*
X123967932Y-141646842D01*
X123855990Y-141376589D01*
X123693475Y-141133368D01*
X123486632Y-140926525D01*
X123243411Y-140764010D01*
X122973158Y-140652068D01*
X122686260Y-140595000D01*
X122393740Y-140595000D01*
X122106842Y-140652068D01*
X121836589Y-140764010D01*
X121593368Y-140926525D01*
X121386525Y-141133368D01*
X121224010Y-141376589D01*
X121112068Y-141646842D01*
X121055000Y-141933740D01*
X120095000Y-141933740D01*
X120095000Y-141820475D01*
X119993739Y-141311399D01*
X119795107Y-140831859D01*
X119506738Y-140400285D01*
X119139715Y-140033262D01*
X118708141Y-139744893D01*
X118228601Y-139546261D01*
X117719525Y-139445000D01*
X117200475Y-139445000D01*
X116691399Y-139546261D01*
X116211859Y-139744893D01*
X115780285Y-140033262D01*
X115413262Y-140400285D01*
X115124893Y-140831859D01*
X114926261Y-141311399D01*
X114825000Y-141820475D01*
X113842471Y-141820475D01*
X113807932Y-141646842D01*
X113695990Y-141376589D01*
X113656842Y-141318000D01*
X113825118Y-141318000D01*
X114168623Y-141249672D01*
X114492199Y-141115643D01*
X114783409Y-140921063D01*
X115031063Y-140673409D01*
X115225643Y-140382199D01*
X115359672Y-140058623D01*
X115428000Y-139715118D01*
X115428000Y-139364882D01*
X115359672Y-139021377D01*
X115225643Y-138697801D01*
X115031063Y-138406591D01*
X114783409Y-138158937D01*
X114492199Y-137964357D01*
X114168623Y-137830328D01*
X113825118Y-137762000D01*
X113474882Y-137762000D01*
X113131377Y-137830328D01*
X112807801Y-137964357D01*
X112516591Y-138158937D01*
X112268937Y-138406591D01*
X112074357Y-138697801D01*
X111940328Y-139021377D01*
X111872000Y-139364882D01*
X111872000Y-139715118D01*
X111940328Y-140058623D01*
X112074357Y-140382199D01*
X112218563Y-140598019D01*
X111946842Y-140652068D01*
X111676589Y-140764010D01*
X111433368Y-140926525D01*
X111226525Y-141133368D01*
X111064010Y-141376589D01*
X110952068Y-141646842D01*
X110895000Y-141933740D01*
X109880000Y-141933740D01*
X109880000Y-136824882D01*
X118222000Y-136824882D01*
X118222000Y-137175118D01*
X118290328Y-137518623D01*
X118424357Y-137842199D01*
X118618937Y-138133409D01*
X118866591Y-138381063D01*
X119157801Y-138575643D01*
X119481377Y-138709672D01*
X119824882Y-138778000D01*
X120175118Y-138778000D01*
X120518623Y-138709672D01*
X120842199Y-138575643D01*
X121133409Y-138381063D01*
X121381063Y-138133409D01*
X121575643Y-137842199D01*
X121709672Y-137518623D01*
X121778000Y-137175118D01*
X121778000Y-136824882D01*
X121709672Y-136481377D01*
X121575643Y-136157801D01*
X121381063Y-135866591D01*
X121199164Y-135684692D01*
X121213185Y-135673185D01*
X121292537Y-135576494D01*
X121351502Y-135466180D01*
X121387812Y-135346482D01*
X121400072Y-135222000D01*
X121400072Y-133698000D01*
X121387812Y-133573518D01*
X121351502Y-133453820D01*
X121292537Y-133343506D01*
X121213185Y-133246815D01*
X121116494Y-133167463D01*
X121006180Y-133108498D01*
X120886482Y-133072188D01*
X120762000Y-133059928D01*
X119238000Y-133059928D01*
X119113518Y-133072188D01*
X118993820Y-133108498D01*
X118883506Y-133167463D01*
X118786815Y-133246815D01*
X118707463Y-133343506D01*
X118648498Y-133453820D01*
X118612188Y-133573518D01*
X118599928Y-133698000D01*
X118599928Y-135222000D01*
X118612188Y-135346482D01*
X118648498Y-135466180D01*
X118707463Y-135576494D01*
X118786815Y-135673185D01*
X118800836Y-135684692D01*
X118618937Y-135866591D01*
X118424357Y-136157801D01*
X118290328Y-136481377D01*
X118222000Y-136824882D01*
X109880000Y-136824882D01*
X109880000Y-135425565D01*
X114134040Y-135425565D01*
X114201020Y-135665656D01*
X114450048Y-135782756D01*
X114717135Y-135849023D01*
X114992017Y-135861910D01*
X115264133Y-135820922D01*
X115523023Y-135727636D01*
X115638980Y-135665656D01*
X115705960Y-135425565D01*
X114920000Y-134639605D01*
X114134040Y-135425565D01*
X109880000Y-135425565D01*
X109880000Y-134532017D01*
X113518090Y-134532017D01*
X113559078Y-134804133D01*
X113652364Y-135063023D01*
X113714344Y-135178980D01*
X113954435Y-135245960D01*
X114740395Y-134460000D01*
X115099605Y-134460000D01*
X115885565Y-135245960D01*
X116125656Y-135178980D01*
X116242756Y-134929952D01*
X116309023Y-134662865D01*
X116321910Y-134387983D01*
X116280922Y-134115867D01*
X116187636Y-133856977D01*
X116125656Y-133741020D01*
X115885565Y-133674040D01*
X115099605Y-134460000D01*
X114740395Y-134460000D01*
X113954435Y-133674040D01*
X113714344Y-133741020D01*
X113597244Y-133990048D01*
X113530977Y-134257135D01*
X113518090Y-134532017D01*
X109880000Y-134532017D01*
X109880000Y-133494435D01*
X114134040Y-133494435D01*
X114920000Y-134280395D01*
X115705960Y-133494435D01*
X115638980Y-133254344D01*
X115389952Y-133137244D01*
X115122865Y-133070977D01*
X114847983Y-133058090D01*
X114575867Y-133099078D01*
X114316977Y-133192364D01*
X114201020Y-133254344D01*
X114134040Y-133494435D01*
X109880000Y-133494435D01*
X109880000Y-122933740D01*
X110895000Y-122933740D01*
X110895000Y-123226260D01*
X110952068Y-123513158D01*
X111064010Y-123783411D01*
X111226525Y-124026632D01*
X111433368Y-124233475D01*
X111676589Y-124395990D01*
X111946842Y-124507932D01*
X112233740Y-124565000D01*
X112526260Y-124565000D01*
X112813158Y-124507932D01*
X113083411Y-124395990D01*
X113326632Y-124233475D01*
X113533475Y-124026632D01*
X113695990Y-123783411D01*
X113807932Y-123513158D01*
X113865000Y-123226260D01*
X113865000Y-122933740D01*
X113842471Y-122820475D01*
X114825000Y-122820475D01*
X114825000Y-123339525D01*
X114926261Y-123848601D01*
X115124893Y-124328141D01*
X115413262Y-124759715D01*
X115780285Y-125126738D01*
X116211859Y-125415107D01*
X116691399Y-125613739D01*
X117200475Y-125715000D01*
X117719525Y-125715000D01*
X118228601Y-125613739D01*
X118708141Y-125415107D01*
X119139715Y-125126738D01*
X119506738Y-124759715D01*
X119795107Y-124328141D01*
X119993739Y-123848601D01*
X120095000Y-123339525D01*
X120095000Y-122933740D01*
X121055000Y-122933740D01*
X121055000Y-123226260D01*
X121112068Y-123513158D01*
X121224010Y-123783411D01*
X121386525Y-124026632D01*
X121593368Y-124233475D01*
X121836589Y-124395990D01*
X122106842Y-124507932D01*
X122393740Y-124565000D01*
X122686260Y-124565000D01*
X122973158Y-124507932D01*
X123243411Y-124395990D01*
X123486632Y-124233475D01*
X123693475Y-124026632D01*
X123855990Y-123783411D01*
X123967932Y-123513158D01*
X124025000Y-123226260D01*
X124025000Y-122933740D01*
X123967932Y-122646842D01*
X123855990Y-122376589D01*
X123693475Y-122133368D01*
X123486632Y-121926525D01*
X123243411Y-121764010D01*
X122973158Y-121652068D01*
X122686260Y-121595000D01*
X122393740Y-121595000D01*
X122106842Y-121652068D01*
X121836589Y-121764010D01*
X121593368Y-121926525D01*
X121386525Y-122133368D01*
X121224010Y-122376589D01*
X121112068Y-122646842D01*
X121055000Y-122933740D01*
X120095000Y-122933740D01*
X120095000Y-122820475D01*
X119993739Y-122311399D01*
X119795107Y-121831859D01*
X119506738Y-121400285D01*
X119139715Y-121033262D01*
X118708141Y-120744893D01*
X118228601Y-120546261D01*
X117719525Y-120445000D01*
X117200475Y-120445000D01*
X116691399Y-120546261D01*
X116211859Y-120744893D01*
X115780285Y-121033262D01*
X115413262Y-121400285D01*
X115124893Y-121831859D01*
X114926261Y-122311399D01*
X114825000Y-122820475D01*
X113842471Y-122820475D01*
X113807932Y-122646842D01*
X113695990Y-122376589D01*
X113656842Y-122318000D01*
X113825118Y-122318000D01*
X114168623Y-122249672D01*
X114492199Y-122115643D01*
X114783409Y-121921063D01*
X115031063Y-121673409D01*
X115225643Y-121382199D01*
X115359672Y-121058623D01*
X115428000Y-120715118D01*
X115428000Y-120364882D01*
X115359672Y-120021377D01*
X115225643Y-119697801D01*
X115031063Y-119406591D01*
X114783409Y-119158937D01*
X114492199Y-118964357D01*
X114168623Y-118830328D01*
X113825118Y-118762000D01*
X113474882Y-118762000D01*
X113131377Y-118830328D01*
X112807801Y-118964357D01*
X112516591Y-119158937D01*
X112268937Y-119406591D01*
X112074357Y-119697801D01*
X111940328Y-120021377D01*
X111872000Y-120364882D01*
X111872000Y-120715118D01*
X111940328Y-121058623D01*
X112074357Y-121382199D01*
X112218563Y-121598019D01*
X111946842Y-121652068D01*
X111676589Y-121764010D01*
X111433368Y-121926525D01*
X111226525Y-122133368D01*
X111064010Y-122376589D01*
X110952068Y-122646842D01*
X110895000Y-122933740D01*
X109880000Y-122933740D01*
X109880000Y-117824882D01*
X118222000Y-117824882D01*
X118222000Y-118175118D01*
X118290328Y-118518623D01*
X118424357Y-118842199D01*
X118618937Y-119133409D01*
X118866591Y-119381063D01*
X119157801Y-119575643D01*
X119481377Y-119709672D01*
X119824882Y-119778000D01*
X120175118Y-119778000D01*
X120518623Y-119709672D01*
X120842199Y-119575643D01*
X121133409Y-119381063D01*
X121381063Y-119133409D01*
X121575643Y-118842199D01*
X121709672Y-118518623D01*
X121778000Y-118175118D01*
X121778000Y-117824882D01*
X121709672Y-117481377D01*
X121575643Y-117157801D01*
X121381063Y-116866591D01*
X121199164Y-116684692D01*
X121213185Y-116673185D01*
X121292537Y-116576494D01*
X121351502Y-116466180D01*
X121387812Y-116346482D01*
X121400072Y-116222000D01*
X121400072Y-114698000D01*
X121387812Y-114573518D01*
X121351502Y-114453820D01*
X121292537Y-114343506D01*
X121213185Y-114246815D01*
X121116494Y-114167463D01*
X121006180Y-114108498D01*
X120886482Y-114072188D01*
X120762000Y-114059928D01*
X119238000Y-114059928D01*
X119113518Y-114072188D01*
X118993820Y-114108498D01*
X118883506Y-114167463D01*
X118786815Y-114246815D01*
X118707463Y-114343506D01*
X118648498Y-114453820D01*
X118612188Y-114573518D01*
X118599928Y-114698000D01*
X118599928Y-116222000D01*
X118612188Y-116346482D01*
X118648498Y-116466180D01*
X118707463Y-116576494D01*
X118786815Y-116673185D01*
X118800836Y-116684692D01*
X118618937Y-116866591D01*
X118424357Y-117157801D01*
X118290328Y-117481377D01*
X118222000Y-117824882D01*
X109880000Y-117824882D01*
X109880000Y-116425565D01*
X114134040Y-116425565D01*
X114201020Y-116665656D01*
X114450048Y-116782756D01*
X114717135Y-116849023D01*
X114992017Y-116861910D01*
X115264133Y-116820922D01*
X115523023Y-116727636D01*
X115638980Y-116665656D01*
X115705960Y-116425565D01*
X114920000Y-115639605D01*
X114134040Y-116425565D01*
X109880000Y-116425565D01*
X109880000Y-115532017D01*
X113518090Y-115532017D01*
X113559078Y-115804133D01*
X113652364Y-116063023D01*
X113714344Y-116178980D01*
X113954435Y-116245960D01*
X114740395Y-115460000D01*
X115099605Y-115460000D01*
X115885565Y-116245960D01*
X116125656Y-116178980D01*
X116242756Y-115929952D01*
X116309023Y-115662865D01*
X116321910Y-115387983D01*
X116280922Y-115115867D01*
X116187636Y-114856977D01*
X116125656Y-114741020D01*
X115885565Y-114674040D01*
X115099605Y-115460000D01*
X114740395Y-115460000D01*
X113954435Y-114674040D01*
X113714344Y-114741020D01*
X113597244Y-114990048D01*
X113530977Y-115257135D01*
X113518090Y-115532017D01*
X109880000Y-115532017D01*
X109880000Y-114494435D01*
X114134040Y-114494435D01*
X114920000Y-115280395D01*
X115705960Y-114494435D01*
X115638980Y-114254344D01*
X115389952Y-114137244D01*
X115122865Y-114070977D01*
X114847983Y-114058090D01*
X114575867Y-114099078D01*
X114316977Y-114192364D01*
X114201020Y-114254344D01*
X114134040Y-114494435D01*
X109880000Y-114494435D01*
X109880000Y-103933740D01*
X110895000Y-103933740D01*
X110895000Y-104226260D01*
X110952068Y-104513158D01*
X111064010Y-104783411D01*
X111226525Y-105026632D01*
X111433368Y-105233475D01*
X111676589Y-105395990D01*
X111946842Y-105507932D01*
X112233740Y-105565000D01*
X112526260Y-105565000D01*
X112813158Y-105507932D01*
X113083411Y-105395990D01*
X113326632Y-105233475D01*
X113533475Y-105026632D01*
X113695990Y-104783411D01*
X113807932Y-104513158D01*
X113865000Y-104226260D01*
X113865000Y-103933740D01*
X113842471Y-103820475D01*
X114825000Y-103820475D01*
X114825000Y-104339525D01*
X114926261Y-104848601D01*
X115124893Y-105328141D01*
X115413262Y-105759715D01*
X115780285Y-106126738D01*
X116211859Y-106415107D01*
X116691399Y-106613739D01*
X117200475Y-106715000D01*
X117719525Y-106715000D01*
X118228601Y-106613739D01*
X118708141Y-106415107D01*
X119139715Y-106126738D01*
X119506738Y-105759715D01*
X119795107Y-105328141D01*
X119993739Y-104848601D01*
X120095000Y-104339525D01*
X120095000Y-103933740D01*
X121055000Y-103933740D01*
X121055000Y-104226260D01*
X121112068Y-104513158D01*
X121224010Y-104783411D01*
X121386525Y-105026632D01*
X121593368Y-105233475D01*
X121836589Y-105395990D01*
X122106842Y-105507932D01*
X122393740Y-105565000D01*
X122686260Y-105565000D01*
X122973158Y-105507932D01*
X123243411Y-105395990D01*
X123486632Y-105233475D01*
X123693475Y-105026632D01*
X123855990Y-104783411D01*
X123967932Y-104513158D01*
X124025000Y-104226260D01*
X124025000Y-103933740D01*
X123967932Y-103646842D01*
X123855990Y-103376589D01*
X123693475Y-103133368D01*
X123486632Y-102926525D01*
X123243411Y-102764010D01*
X122973158Y-102652068D01*
X122686260Y-102595000D01*
X122393740Y-102595000D01*
X122106842Y-102652068D01*
X121836589Y-102764010D01*
X121593368Y-102926525D01*
X121386525Y-103133368D01*
X121224010Y-103376589D01*
X121112068Y-103646842D01*
X121055000Y-103933740D01*
X120095000Y-103933740D01*
X120095000Y-103820475D01*
X119993739Y-103311399D01*
X119795107Y-102831859D01*
X119506738Y-102400285D01*
X119139715Y-102033262D01*
X118708141Y-101744893D01*
X118228601Y-101546261D01*
X117719525Y-101445000D01*
X117200475Y-101445000D01*
X116691399Y-101546261D01*
X116211859Y-101744893D01*
X115780285Y-102033262D01*
X115413262Y-102400285D01*
X115124893Y-102831859D01*
X114926261Y-103311399D01*
X114825000Y-103820475D01*
X113842471Y-103820475D01*
X113807932Y-103646842D01*
X113695990Y-103376589D01*
X113656842Y-103318000D01*
X113825118Y-103318000D01*
X114168623Y-103249672D01*
X114492199Y-103115643D01*
X114783409Y-102921063D01*
X115031063Y-102673409D01*
X115225643Y-102382199D01*
X115359672Y-102058623D01*
X115428000Y-101715118D01*
X115428000Y-101364882D01*
X115359672Y-101021377D01*
X115225643Y-100697801D01*
X115031063Y-100406591D01*
X114783409Y-100158937D01*
X114492199Y-99964357D01*
X114168623Y-99830328D01*
X113825118Y-99762000D01*
X113474882Y-99762000D01*
X113131377Y-99830328D01*
X112807801Y-99964357D01*
X112516591Y-100158937D01*
X112268937Y-100406591D01*
X112074357Y-100697801D01*
X111940328Y-101021377D01*
X111872000Y-101364882D01*
X111872000Y-101715118D01*
X111940328Y-102058623D01*
X112074357Y-102382199D01*
X112218563Y-102598019D01*
X111946842Y-102652068D01*
X111676589Y-102764010D01*
X111433368Y-102926525D01*
X111226525Y-103133368D01*
X111064010Y-103376589D01*
X110952068Y-103646842D01*
X110895000Y-103933740D01*
X109880000Y-103933740D01*
X109880000Y-98824882D01*
X118222000Y-98824882D01*
X118222000Y-99175118D01*
X118290328Y-99518623D01*
X118424357Y-99842199D01*
X118618937Y-100133409D01*
X118866591Y-100381063D01*
X119157801Y-100575643D01*
X119481377Y-100709672D01*
X119824882Y-100778000D01*
X120175118Y-100778000D01*
X120518623Y-100709672D01*
X120842199Y-100575643D01*
X121133409Y-100381063D01*
X121381063Y-100133409D01*
X121575643Y-99842199D01*
X121709672Y-99518623D01*
X121778000Y-99175118D01*
X121778000Y-98824882D01*
X121709672Y-98481377D01*
X121575643Y-98157801D01*
X121381063Y-97866591D01*
X121199164Y-97684692D01*
X121213185Y-97673185D01*
X121292537Y-97576494D01*
X121351502Y-97466180D01*
X121387812Y-97346482D01*
X121400072Y-97222000D01*
X121400072Y-95698000D01*
X121387812Y-95573518D01*
X121351502Y-95453820D01*
X121292537Y-95343506D01*
X121213185Y-95246815D01*
X121116494Y-95167463D01*
X121006180Y-95108498D01*
X120886482Y-95072188D01*
X120762000Y-95059928D01*
X119238000Y-95059928D01*
X119113518Y-95072188D01*
X118993820Y-95108498D01*
X118883506Y-95167463D01*
X118786815Y-95246815D01*
X118707463Y-95343506D01*
X118648498Y-95453820D01*
X118612188Y-95573518D01*
X118599928Y-95698000D01*
X118599928Y-97222000D01*
X118612188Y-97346482D01*
X118648498Y-97466180D01*
X118707463Y-97576494D01*
X118786815Y-97673185D01*
X118800836Y-97684692D01*
X118618937Y-97866591D01*
X118424357Y-98157801D01*
X118290328Y-98481377D01*
X118222000Y-98824882D01*
X109880000Y-98824882D01*
X109880000Y-97425565D01*
X114134040Y-97425565D01*
X114201020Y-97665656D01*
X114450048Y-97782756D01*
X114717135Y-97849023D01*
X114992017Y-97861910D01*
X115264133Y-97820922D01*
X115523023Y-97727636D01*
X115638980Y-97665656D01*
X115705960Y-97425565D01*
X114920000Y-96639605D01*
X114134040Y-97425565D01*
X109880000Y-97425565D01*
X109880000Y-96532017D01*
X113518090Y-96532017D01*
X113559078Y-96804133D01*
X113652364Y-97063023D01*
X113714344Y-97178980D01*
X113954435Y-97245960D01*
X114740395Y-96460000D01*
X115099605Y-96460000D01*
X115885565Y-97245960D01*
X116125656Y-97178980D01*
X116242756Y-96929952D01*
X116309023Y-96662865D01*
X116321910Y-96387983D01*
X116280922Y-96115867D01*
X116187636Y-95856977D01*
X116125656Y-95741020D01*
X115885565Y-95674040D01*
X115099605Y-96460000D01*
X114740395Y-96460000D01*
X113954435Y-95674040D01*
X113714344Y-95741020D01*
X113597244Y-95990048D01*
X113530977Y-96257135D01*
X113518090Y-96532017D01*
X109880000Y-96532017D01*
X109880000Y-95494435D01*
X114134040Y-95494435D01*
X114920000Y-96280395D01*
X115705960Y-95494435D01*
X115638980Y-95254344D01*
X115389952Y-95137244D01*
X115122865Y-95070977D01*
X114847983Y-95058090D01*
X114575867Y-95099078D01*
X114316977Y-95192364D01*
X114201020Y-95254344D01*
X114134040Y-95494435D01*
X109880000Y-95494435D01*
X109880000Y-84933740D01*
X110895000Y-84933740D01*
X110895000Y-85226260D01*
X110952068Y-85513158D01*
X111064010Y-85783411D01*
X111226525Y-86026632D01*
X111433368Y-86233475D01*
X111676589Y-86395990D01*
X111946842Y-86507932D01*
X112233740Y-86565000D01*
X112526260Y-86565000D01*
X112813158Y-86507932D01*
X113083411Y-86395990D01*
X113326632Y-86233475D01*
X113533475Y-86026632D01*
X113695990Y-85783411D01*
X113807932Y-85513158D01*
X113865000Y-85226260D01*
X113865000Y-84933740D01*
X113842471Y-84820475D01*
X114825000Y-84820475D01*
X114825000Y-85339525D01*
X114926261Y-85848601D01*
X115124893Y-86328141D01*
X115413262Y-86759715D01*
X115780285Y-87126738D01*
X116211859Y-87415107D01*
X116691399Y-87613739D01*
X117200475Y-87715000D01*
X117719525Y-87715000D01*
X118228601Y-87613739D01*
X118708141Y-87415107D01*
X119139715Y-87126738D01*
X119506738Y-86759715D01*
X119795107Y-86328141D01*
X119993739Y-85848601D01*
X120095000Y-85339525D01*
X120095000Y-84933740D01*
X121055000Y-84933740D01*
X121055000Y-85226260D01*
X121112068Y-85513158D01*
X121224010Y-85783411D01*
X121386525Y-86026632D01*
X121593368Y-86233475D01*
X121836589Y-86395990D01*
X122106842Y-86507932D01*
X122393740Y-86565000D01*
X122686260Y-86565000D01*
X122973158Y-86507932D01*
X123243411Y-86395990D01*
X123486632Y-86233475D01*
X123693475Y-86026632D01*
X123855990Y-85783411D01*
X123967932Y-85513158D01*
X124025000Y-85226260D01*
X124025000Y-84933740D01*
X123967932Y-84646842D01*
X123855990Y-84376589D01*
X123693475Y-84133368D01*
X123486632Y-83926525D01*
X123243411Y-83764010D01*
X122973158Y-83652068D01*
X122686260Y-83595000D01*
X122393740Y-83595000D01*
X122106842Y-83652068D01*
X121836589Y-83764010D01*
X121593368Y-83926525D01*
X121386525Y-84133368D01*
X121224010Y-84376589D01*
X121112068Y-84646842D01*
X121055000Y-84933740D01*
X120095000Y-84933740D01*
X120095000Y-84820475D01*
X119993739Y-84311399D01*
X119795107Y-83831859D01*
X119506738Y-83400285D01*
X119139715Y-83033262D01*
X118708141Y-82744893D01*
X118228601Y-82546261D01*
X117719525Y-82445000D01*
X117200475Y-82445000D01*
X116691399Y-82546261D01*
X116211859Y-82744893D01*
X115780285Y-83033262D01*
X115413262Y-83400285D01*
X115124893Y-83831859D01*
X114926261Y-84311399D01*
X114825000Y-84820475D01*
X113842471Y-84820475D01*
X113807932Y-84646842D01*
X113695990Y-84376589D01*
X113656842Y-84318000D01*
X113825118Y-84318000D01*
X114168623Y-84249672D01*
X114492199Y-84115643D01*
X114783409Y-83921063D01*
X115031063Y-83673409D01*
X115225643Y-83382199D01*
X115359672Y-83058623D01*
X115428000Y-82715118D01*
X115428000Y-82364882D01*
X115359672Y-82021377D01*
X115225643Y-81697801D01*
X115031063Y-81406591D01*
X114783409Y-81158937D01*
X114492199Y-80964357D01*
X114168623Y-80830328D01*
X113825118Y-80762000D01*
X113474882Y-80762000D01*
X113131377Y-80830328D01*
X112807801Y-80964357D01*
X112516591Y-81158937D01*
X112268937Y-81406591D01*
X112074357Y-81697801D01*
X111940328Y-82021377D01*
X111872000Y-82364882D01*
X111872000Y-82715118D01*
X111940328Y-83058623D01*
X112074357Y-83382199D01*
X112218563Y-83598019D01*
X111946842Y-83652068D01*
X111676589Y-83764010D01*
X111433368Y-83926525D01*
X111226525Y-84133368D01*
X111064010Y-84376589D01*
X110952068Y-84646842D01*
X110895000Y-84933740D01*
X109880000Y-84933740D01*
X109880000Y-79824882D01*
X118222000Y-79824882D01*
X118222000Y-80175118D01*
X118290328Y-80518623D01*
X118424357Y-80842199D01*
X118618937Y-81133409D01*
X118866591Y-81381063D01*
X119157801Y-81575643D01*
X119481377Y-81709672D01*
X119824882Y-81778000D01*
X120175118Y-81778000D01*
X120518623Y-81709672D01*
X120842199Y-81575643D01*
X121133409Y-81381063D01*
X121381063Y-81133409D01*
X121575643Y-80842199D01*
X121709672Y-80518623D01*
X121778000Y-80175118D01*
X121778000Y-79824882D01*
X121709672Y-79481377D01*
X121575643Y-79157801D01*
X121381063Y-78866591D01*
X121199164Y-78684692D01*
X121213185Y-78673185D01*
X121292537Y-78576494D01*
X121351502Y-78466180D01*
X121387812Y-78346482D01*
X121400072Y-78222000D01*
X121400072Y-76698000D01*
X121387812Y-76573518D01*
X121351502Y-76453820D01*
X121292537Y-76343506D01*
X121213185Y-76246815D01*
X121116494Y-76167463D01*
X121006180Y-76108498D01*
X120886482Y-76072188D01*
X120762000Y-76059928D01*
X119238000Y-76059928D01*
X119113518Y-76072188D01*
X118993820Y-76108498D01*
X118883506Y-76167463D01*
X118786815Y-76246815D01*
X118707463Y-76343506D01*
X118648498Y-76453820D01*
X118612188Y-76573518D01*
X118599928Y-76698000D01*
X118599928Y-78222000D01*
X118612188Y-78346482D01*
X118648498Y-78466180D01*
X118707463Y-78576494D01*
X118786815Y-78673185D01*
X118800836Y-78684692D01*
X118618937Y-78866591D01*
X118424357Y-79157801D01*
X118290328Y-79481377D01*
X118222000Y-79824882D01*
X109880000Y-79824882D01*
X109880000Y-78425565D01*
X114134040Y-78425565D01*
X114201020Y-78665656D01*
X114450048Y-78782756D01*
X114717135Y-78849023D01*
X114992017Y-78861910D01*
X115264133Y-78820922D01*
X115523023Y-78727636D01*
X115638980Y-78665656D01*
X115705960Y-78425565D01*
X114920000Y-77639605D01*
X114134040Y-78425565D01*
X109880000Y-78425565D01*
X109880000Y-77532017D01*
X113518090Y-77532017D01*
X113559078Y-77804133D01*
X113652364Y-78063023D01*
X113714344Y-78178980D01*
X113954435Y-78245960D01*
X114740395Y-77460000D01*
X115099605Y-77460000D01*
X115885565Y-78245960D01*
X116125656Y-78178980D01*
X116242756Y-77929952D01*
X116309023Y-77662865D01*
X116321910Y-77387983D01*
X116280922Y-77115867D01*
X116187636Y-76856977D01*
X116125656Y-76741020D01*
X115885565Y-76674040D01*
X115099605Y-77460000D01*
X114740395Y-77460000D01*
X113954435Y-76674040D01*
X113714344Y-76741020D01*
X113597244Y-76990048D01*
X113530977Y-77257135D01*
X113518090Y-77532017D01*
X109880000Y-77532017D01*
X109880000Y-76494435D01*
X114134040Y-76494435D01*
X114920000Y-77280395D01*
X115705960Y-76494435D01*
X115638980Y-76254344D01*
X115389952Y-76137244D01*
X115122865Y-76070977D01*
X114847983Y-76058090D01*
X114575867Y-76099078D01*
X114316977Y-76192364D01*
X114201020Y-76254344D01*
X114134040Y-76494435D01*
X109880000Y-76494435D01*
X109880000Y-74625565D01*
X110339040Y-74625565D01*
X110406020Y-74865656D01*
X110655048Y-74982756D01*
X110922135Y-75049023D01*
X111197017Y-75061910D01*
X111469133Y-75020922D01*
X111728023Y-74927636D01*
X111843980Y-74865656D01*
X111910960Y-74625565D01*
X111125000Y-73839605D01*
X110339040Y-74625565D01*
X109880000Y-74625565D01*
X109880000Y-74305372D01*
X109919344Y-74378980D01*
X110159435Y-74445960D01*
X110945395Y-73660000D01*
X110159435Y-72874040D01*
X109919344Y-72941020D01*
X109880000Y-73024690D01*
X109880000Y-72694435D01*
X110339040Y-72694435D01*
X111125000Y-73480395D01*
X111910960Y-72694435D01*
X111843980Y-72454344D01*
X111594952Y-72337244D01*
X111327865Y-72270977D01*
X111052983Y-72258090D01*
X110780867Y-72299078D01*
X110521977Y-72392364D01*
X110406020Y-72454344D01*
X110339040Y-72694435D01*
X109880000Y-72694435D01*
X109880000Y-69875000D01*
X125070001Y-69875000D01*
X125070001Y-71745163D01*
%TD*%
M02*
